<svg xmlns="http://www.w3.org/2000/svg" viewBox="0 0 212.33 212.33"><title>instagram</title><g id="Layer_2" data-name="Layer 2"><g id="Layer_1-2" data-name="Layer 1"><path d="M163.74,212.33H48.59A48.64,48.64,0,0,1,0,163.74V48.59A48.65,48.65,0,0,1,48.59,0H163.74a48.64,48.64,0,0,1,48.59,48.59V163.74A48.64,48.64,0,0,1,163.74,212.33ZM48.59,15.12A33.51,33.51,0,0,0,15.12,48.59V163.74a33.51,33.51,0,0,0,33.47,33.47H163.74a33.5,33.5,0,0,0,33.47-33.47V48.59a33.51,33.51,0,0,0-33.47-33.47Z"/><path d="M106.17,162.64a56.47,56.47,0,1,1,56.47-56.47A56.54,56.54,0,0,1,106.17,162.64Zm0-97.82a41.35,41.35,0,1,0,41.34,41.35A41.4,41.4,0,0,0,106.17,64.82Z"/><circle cx="165.15" cy="44.51" r="10.08"/></g></g></svg>