<svg xmlns="http://www.w3.org/2000/svg" viewBox="0 0 183.19 148.87"><title>twitter</title><g id="Layer_2" data-name="Layer 2"><g id="twitter"><path d="M183.19,17.62a75.21,75.21,0,0,1-21.59,5.92A37.69,37.69,0,0,0,178.13,2.75a75.3,75.3,0,0,1-23.86,9.12A37.63,37.63,0,0,0,90.22,46.15,106.69,106.69,0,0,1,12.75,6.87,37.65,37.65,0,0,0,24.38,57.05a37.31,37.31,0,0,1-17-4.7v.48A37.62,37.62,0,0,0,37.5,89.68a37.11,37.11,0,0,1-17,.64,37.63,37.63,0,0,0,35.1,26.11A75.4,75.4,0,0,1,9,132.52,75.77,75.77,0,0,1,0,132a106.47,106.47,0,0,0,57.62,16.88c69.13,0,106.93-57.26,106.93-106.93,0-1.62,0-3.24-.11-4.87a76.56,76.56,0,0,0,18.75-19.45"/></g></g></svg>