<?xml version="1.0" encoding="utf-8"?>
<!-- Generator: Adobe Illustrator 24.0.1, SVG Export Plug-In . SVG Version: 6.00 Build 0)  -->
<svg version="1.1" id="Layer_1" xmlns="http://www.w3.org/2000/svg" xmlns:xlink="http://www.w3.org/1999/xlink" x="0px" y="0px"
	 viewBox="0 0 612 792" style="enable-background:new 0 0 612 792;" xml:space="preserve">
<style type="text/css">
	.st0{fill:none;stroke:#231F20;stroke-width:1.8375;stroke-linecap:round;stroke-miterlimit:10;}
	.st1{fill:none;stroke:#231F20;stroke-width:1.8375;stroke-miterlimit:10;}
</style>
<g>
	<path class="st0" d="M273.48,284.41v-25.4c0-16.78,10.4-30.84,23.23-30.84h4.73c12.83,0,23.23,14.06,23.23,30.84"/>
	<path class="st1" d="M327.65,274.31v10.41c0,0.88-0.71,1.59-1.59,1.59h-2.72c-0.92,0-1.66-0.74-1.66-1.66v-10.34
		c0-0.99-0.8-1.79-1.79-1.79h-45.53c-12.23,0-22.15,9.91-22.15,22.15v9.94c0,26.31,21.33,47.64,47.64,47.64h0
		c26.31,0,47.64-21.33,47.64-47.64v-9.94c0-10.86-7.81-19.89-18.13-21.78C328.48,272.73,327.65,273.4,327.65,274.31z"/>
	<path class="st0" d="M308.09,304.91c0-4.55-3.69-8.23-8.23-8.23s-8.23,3.69-8.23,8.23c0,3.63,2.35,6.7,5.61,7.8v13.83
		c0,1.45,1.18,2.63,2.63,2.63s2.63-1.18,2.63-2.63v-13.83C305.74,311.61,308.09,308.54,308.09,304.91z"/>
</g>
</svg>
