<?xml version="1.0" encoding="utf-8"?>
<!-- Generator: Adobe Illustrator 24.0.1, SVG Export Plug-In . SVG Version: 6.00 Build 0)  -->
<svg version="1.1" id="Layer_1" xmlns="http://www.w3.org/2000/svg" xmlns:xlink="http://www.w3.org/1999/xlink" x="0px" y="0px"
	 viewBox="0 0 612 792" style="enable-background:new 0 0 612 792;" xml:space="preserve">
<style type="text/css">
	.st0{fill:#FFFFFF;}
</style>
<rect x="240.71" y="222.07" width="118.29" height="136.29"/>
<g>
	<path class="st0" d="M301.43,227.71h-4.73c-13.32,0-24.15,14.25-24.15,31.76v13.6c0.59-0.05,1.19-0.08,1.8-0.08h0.04v-13.52
		c0-16.5,10.01-29.92,22.31-29.92h4.73c12.3,0,22.31,13.42,22.31,29.92c0,0.51,0.41,0.92,0.92,0.92s0.92-0.41,0.92-0.92
		C325.58,241.96,314.75,227.71,301.43,227.71z"/>
	<path class="st0" d="M329.38,273.36c-0.9-0.16-1.73,0.51-1.73,1.42v10.41c0,0.88-0.71,1.59-1.59,1.59h-2.72
		c-0.92,0-1.66-0.74-1.66-1.66v-10.34c0-0.99-0.8-1.79-1.79-1.79h-45.5v11.88c0,0.51-0.41,0.92-0.92,0.92s-0.92-0.41-0.92-0.92
		v-11.8c0.59-0.05,1.19-0.08,1.8-0.08c-12.23,0-22.15,9.91-22.15,22.15v9.94c0,26.31,21.33,47.64,47.64,47.64h0
		c26.31,0,47.64-21.33,47.64-47.64v-9.94C347.5,284.28,339.69,275.25,329.38,273.36z M302.48,313.17V327c0,1.45-1.18,2.63-2.63,2.63
		s-2.63-1.18-2.63-2.63v-13.83c-3.26-1.1-5.61-4.17-5.61-7.8c0-4.55,3.69-8.23,8.23-8.23c4.55,0,8.23,3.69,8.23,8.23
		C308.09,309,305.74,312.07,302.48,313.17z"/>
</g>
</svg>
