<?xml version="1.0" encoding="utf-8"?>
<!-- Generator: Adobe Illustrator 24.0.1, SVG Export Plug-In . SVG Version: 6.00 Build 0)  -->
<svg version="1.1" id="Layer_1" xmlns="http://www.w3.org/2000/svg" xmlns:xlink="http://www.w3.org/1999/xlink" x="0px" y="0px"
	 viewBox="0 0 612 792" style="enable-background:new 0 0 612 792;" xml:space="preserve">
<style type="text/css">
	.st0{fill:#66BE69;}
	.st1{fill:#FCD306;}
	.st2{fill:#3BC5F3;}
	.st3{fill:#EF364D;}
</style>
<g>
	<path class="st0" d="M295.21,410.54v-30.06c0-1.03,1.11-1.67,2-1.16l26.65,15.22c0.91,0.52,0.91,1.84-0.01,2.36l-26.47,14.92
		C296.41,412.37,295.21,411.67,295.21,410.54L295.21,410.54z"/>
	<path class="st1" d="M323.87,394.54l-7.22-4.12l-21,21.17c0.44,0.43,1.14,0.58,1.75,0.24l26.47-14.92
		C324.78,396.38,324.78,395.06,323.87,394.54L323.87,394.54z"/>
	<path class="st2" d="M295.62,379.53c-0.25,0.24-0.41,0.57-0.41,0.96v30.06c0,1.12,1.21,1.82,2.18,1.27l19.16-10.8L295.62,379.53z"
		/>
	<path class="st3" d="M311.39,395.72l-15.69,15.92c0.44,0.39,1.11,0.51,1.7,0.18l19.28-10.87L311.39,395.72L311.39,395.72z"/>
</g>
<g id="circle">
	<g>
		<path class="st2" d="M306.45,372.6c12.68,0,23,10.32,23,23s-10.32,23-23,23s-23-10.32-23-23S293.77,372.6,306.45,372.6
			 M306.45,371.6c-13.25,0-24,10.75-24,24c0,13.25,10.75,24,24,24s24-10.75,24-24C330.45,382.35,319.71,371.6,306.45,371.6
			L306.45,371.6z"/>
	</g>
</g>
</svg>
