<?xml version="1.0" encoding="utf-8"?>
<!-- Generator: Adobe Illustrator 24.0.1, SVG Export Plug-In . SVG Version: 6.00 Build 0)  -->
<svg version="1.1" id="Layer_1" xmlns="http://www.w3.org/2000/svg" xmlns:xlink="http://www.w3.org/1999/xlink" x="0px" y="0px"
	 viewBox="0 0 170 146" style="enable-background:new 0 0 170 146;" xml:space="preserve">
<style type="text/css">
	.st0{fill:#FFFFFF;}
	.st1{fill-rule:evenodd;clip-rule:evenodd;fill:#00A551;}
	.st2{fill:#37B34A;}
	.st3{fill:#2E3191;}
	.st4{fill:none;stroke:#2E3191;stroke-width:1.0995;stroke-miterlimit:10;}
	.st5{fill-rule:evenodd;clip-rule:evenodd;fill:#F05A28;}
	.st6{fill:#231F20;}
</style>
<g>
	<g>
		<path class="st0" d="M25.8,146h118.3c15.9-15.4,25.8-37.1,25.8-61c0-46.9-38.1-85-85-85S0,38.1,0,85C0,108.9,9.9,130.6,25.8,146z"
			/>
	</g>
	<g>
		<path class="st1" d="M7.8,75c0.6-1.9,1.2-3.8,1.8-5.7c0.2-0.7,0.8-1.3,1.3-1.8c1.9-2.3,2.8-4.9,2.8-7.9c-0.1-2.2-0.9-4.2-2.8-5.8
			c5.3,0,7.8-3.2,9.3-7.5c0.4-1.1,0.4-2.3,0.6-3.5c0.4-2.8,1.8-5,3.8-6.8c2.8-2.4,5.7-2.2,8.8-0.6c1.3,0.6,2.6,1.1,4.2,1.4
			c-0.6-1.5-1-3.1-1.8-4.4c-2.8-4.8,0.5-9.2,4.3-11c1.4-0.7,3-1.1,4.5-1.3c5.8-0.6,9-3.6,9.9-9.4c2,1.9,4.3,2.7,7,2.5
			c2.6-0.3,4.9-1.3,6.9-3c3.7-3,8.6-3.6,11.9-1.3c1.1,0.7,1.8,2,2.4,3.2c0.9,1.6,1.5,3.4,2.4,5.6c0.8-1.8,1.4-3.3,2-4.7
			c0.7-1.7,1.4-3.3,3.1-4.3c3.1-2,8.5-1.2,11.7,1.7c2,1.8,4.3,2.7,6.9,2.9c2.7,0.3,4.9-0.7,6.9-2.4c0.9,5.8,3.9,8.6,9.8,9.4
			c3.3,0.4,6,1.7,8.2,4.2c1.8,2.2,2.3,4.5,1.1,7.1c-0.8,1.8-1.5,3.7-2.4,5.9c1.9-0.8,3.5-1.3,5-2.1c4.5-2.3,8.4-0.1,10.5,3.8
			c0.9,1.7,1.4,3.8,1.7,5.7c0.6,3.8,3.2,9,9.5,9.3c-1.8,1.7-2.6,3.7-2.6,6.1c0,2.9,1,5.5,2.9,7.7c2.5,2.9,3.4,6.3,2.4,10.1
			c-0.5,2-1.8,3.5-3.8,4.3c-1.9,0.8-3.7,1.5-5.9,2.5c1.2,0.6,2.1,1,3,1.4c1,0.4,2.1,0.8,3.1,1.3c2.3,1,3.5,2.9,3.8,5.3
			c0.4,3.2-0.3,6.2-2.5,8.7c-2.5,2.9-3.8,6.2-2.8,10c0.4,1.5,1.3,2.8,2,4.2c-4.9,0.3-8.6,3.9-9.1,9.3c-0.4,3.4-1.6,6.4-4.3,8.6
			c-2.1,1.7-4.3,2.3-6.8,1.3c-2.1-0.8-4.2-1.7-6.3-2.6c13.6-14.2,20.4-31.1,19.4-50.7c-0.9-17.7-7.9-32.8-20.8-45
			c-27.4-25.8-67.2-22.4-90.3-1.1c-14,12.8-21.4,28.7-22,47.7c-0.5,18.9,6.2,35.1,19.4,49c-2.8,1.1-5.3,2.4-8,3c-2.7,0.6-5-1-6.7-3
			c-1.7-2-2.6-4.5-2.8-7.2c-0.3-3.8-3.4-9.4-9.3-9.3c0.6-1.1,1.4-2.1,1.8-3.2c1.3-3.8,0.4-7.3-2.1-10.4c-2.5-3.1-3.6-6.5-2.6-10.4
			c0.5-2,1.8-3.4,3.7-4.2c1.9-0.8,3.8-1.6,6.1-2.5c-1.7-0.8-3-1.5-4.3-1.9c-3.6-1.1-5.5-3.4-6-7.1C7.8,75.4,7.8,75.2,7.8,75z"/>
		<path class="st2" d="M38.7,65.4c4.5,5.7,2.8,12.6-3.5,14.9c1.7,4.2,1.4,6.3-1.3,8c-1.9,1.2-4.6,0.6-6.8-1.5c0.1,0.7,0.2,1.4,0.4,2
			c1.3,3.6,2.7,7.3,4.1,10.9c0.1,0.4,0.4,0.7,0.5,1.1c0,0.3-0.1,0.7-0.2,1c-0.3-0.2-0.7-0.3-0.9-0.6c-2.6-4.1-4-8.6-5-13.2
			c-2.3-10.3-1.3-20.4,2.9-30.1c3.9-9,10-16.2,18.2-21.6c4.6-3,9.6-5.2,14.9-6.6c0.3-0.1,0.6-0.3,0.9-0.4c1-0.4,1.8-0.4,2.7,0.9
			c-8.1,1.8-15.5,4.9-21.8,10.2c1.2,0.6,2.4,0.9,3.3,1.7c1.9,1.6,2.2,4.2,1,6.2c-1.2,2-3.7,2.9-5.9,2c-6.5-2.7-11,3.6-9.8,8.6
			c0.7,2.9,4.3,5.7,7.2,5.3c2.1-0.3,3.8-2.5,3.7-5c0-2.4-1.6-4.3-3.8-4.5c-1.3-0.2-2.6,0.7-3,2.2C36.1,58,36.8,59.6,38,60
			c0.4,0.2,1.2,0,1.5-0.3c0.2-0.3,0-1-0.1-1.5c-0.1-0.4-0.2-0.7-0.3-1.1c0.4,0.1,0.9,0.1,1.3,0.4c1.1,0.9,0.8,1.9,0.2,2.9
			c-0.7,1-2.2,1.2-3.3,0.6c-1.8-1.2-2.4-3.1-1.4-5.2c0.9-1.9,2.9-2.8,4.9-2.1c2.2,0.7,4,3.5,3.8,5.9c-0.2,2.6-2.1,5.1-4.3,5.6
			C39.7,65.3,39.3,65.3,38.7,65.4z M26.6,82.5c1.3-2.4,3-3.5,5.6-3.4c4.3,0.3,6.6-1.4,7.7-5.6c1.2-4.6-2.4-9-7.2-8.8
			c-2.6,0.1-4.5,2.3-4.3,5c0.2,2.6,2.3,4.8,4.8,4.6c1.4-0.1,2.6-1.4,2.6-2.9c0-1.5-0.9-2.7-2.5-2.7c-0.4,0-1.1,0.4-1.2,0.7
			c-0.1,0.4,0.3,0.9,0.6,1.4c0.2,0.3,0.4,0.6,0.6,0.8c-0.4,0.1-0.9,0.3-1.1,0.2c-0.5-0.3-1-0.7-1.2-1.2c-0.4-1-0.2-2,0.7-2.7
			c1.1-0.8,2.2-0.6,3.3,0c1.9,1.1,2.4,3.4,1.3,5.4c-1.1,2-3.6,2.7-5.6,1.7c-2.4-1.1-3.3-3.2-3.7-5.6C26.3,73.8,25.9,78.1,26.6,82.5z
			 M47.5,46.9c0.7-2-0.4-4.1-2.4-4.7c-2.1-0.6-4.1,0.3-4.7,2.4c-0.7,2.5,0.3,3.8,2.7,4.8C44.8,50,46.9,48.8,47.5,46.9z M35,85.2
			c0.7-1.9-0.3-4-2.2-4.7c-2.1-0.8-4.2,0.2-4.9,2.3c-0.7,2,0.4,4.1,2.5,4.8C32.3,88.2,34.3,87.2,35,85.2z M33.4,63.5
			c-1-2.1-1.9-4.1-2.8-6.1c-1,3.1-2.1,6.3-3.2,9.5C28.8,64.4,30.9,63.4,33.4,63.5z M38.8,45c-1.1,1.4-2.1,2.6-3.3,4
			c1.6-0.3,2.9-0.5,4.1-0.8C39.4,47.2,39.1,46.2,38.8,45z"/>
		<path class="st2" d="M129.4,65.2c-2.2-0.5-4.2-3-4.3-5.6c-0.1-2.5,1.6-5.2,3.8-5.9c2.1-0.7,4,0.2,4.9,2.1c1,2.1,0.4,4-1.4,5.2
			c-1.1,0.7-2.6,0.5-3.3-0.6c-0.6-1-0.8-2.1,0.2-2.9c0.3-0.3,0.8-0.3,1.3-0.4c-0.1,0.4-0.3,0.7-0.3,1.1c-0.1,0.5-0.3,1.2-0.1,1.5
			c0.3,0.3,1.1,0.4,1.5,0.3c1.2-0.4,1.8-2,1.4-3.2c-0.4-1.4-1.6-2.3-3-2.2c-2.2,0.3-3.8,2.1-3.8,4.5c0,2.5,1.7,4.7,3.7,5
			c2.9,0.4,6.5-2.4,7.2-5.3c1.2-5-3.4-11.3-9.8-8.6c-2.2,0.9-4.7,0-5.9-2c-1.2-2-0.9-4.6,1-6.2c0.9-0.8,2.2-1.1,3.3-1.7
			c-6.3-5.3-13.7-8.4-21.8-10.2c0.8-1.3,1.7-1.3,2.7-0.9c0.3,0.1,0.6,0.4,0.9,0.4c5.3,1.4,10.3,3.6,14.9,6.6
			c8.2,5.4,14.3,12.6,18.2,21.6c4.2,9.7,5.2,19.8,2.9,30.1c-1,4.6-2.4,9.2-5,13.2c-0.2,0.3-0.6,0.4-0.9,0.6c-0.1-0.4-0.3-0.7-0.2-1
			c0.1-0.4,0.3-0.7,0.5-1.1c1.4-3.6,2.8-7.3,4.1-10.9c0.2-0.6,0.3-1.3,0.4-2c-2.2,2.1-5,2.7-6.9,1.5c-2.7-1.7-3-3.8-1.3-8
			c-6.3-2.3-8-9.2-3.5-14.9C130.2,65.3,129.8,65.3,129.4,65.2z M142.6,69.4c-0.4,2.4-1.3,4.5-3.7,5.6c-2.1,1-4.6,0.3-5.6-1.7
			c-1.1-2-0.6-4.3,1.3-5.4c1.1-0.6,2.2-0.8,3.3,0c0.9,0.7,1.1,1.7,0.7,2.7c-0.2,0.5-0.7,0.9-1.1,1.2c-0.3,0.2-0.7-0.1-1.1-0.2
			c0.2-0.3,0.5-0.5,0.6-0.8c0.3-0.4,0.6-0.9,0.6-1.4c0-0.3-0.8-0.7-1.2-0.7c-1.5,0-2.5,1.1-2.5,2.7c0,1.5,1.2,2.8,2.6,2.9
			c2.4,0.1,4.6-2,4.8-4.6c0.2-2.7-1.8-4.9-4.3-5c-4.8-0.2-8.4,4.2-7.2,8.8c1.1,4.2,3.3,5.9,7.6,5.6c2.6-0.2,4.4,0.9,5.6,3.4
			C143.7,78.1,143.3,73.8,142.6,69.4z M126.5,49.3c2.4-1,3.4-2.3,2.7-4.8c-0.6-2-2.6-3-4.7-2.4c-2,0.6-3.1,2.7-2.4,4.7
			C122.7,48.8,124.8,50,126.5,49.3z M139.1,87.6c2.1-0.7,3.2-2.8,2.5-4.8c-0.7-2.1-2.8-3.1-4.9-2.3c-1.9,0.7-2.9,2.8-2.2,4.7
			C135.2,87.2,137.2,88.2,139.1,87.6z M142.2,66.9c-1.1-3.2-2.1-6.3-3.2-9.5c-0.9,2-1.9,4-2.8,6.1C138.7,63.4,140.8,64.4,142.2,66.9
			z M129.9,48.3c1.3,0.2,2.5,0.5,4.1,0.8c-1.2-1.4-2.2-2.7-3.3-4C130.4,46.2,130.2,47.2,129.9,48.3z"/>
		<g>
			<path class="st3" d="M139.6,118.7l-3.6-6.6c0,0-23.9-1.7-51.1,13.1C84.9,125.1,120.7,112.6,139.6,118.7z"/>
			<path class="st3" d="M30.4,118.7l3.6-6.6c0,0,23.7-1.7,50.9,13.1C84.9,125.1,49.3,112.6,30.4,118.7z"/>
			<g>
				<path class="st3" d="M80.5,87.1C80.5,87.1,80.5,87.1,80.5,87.1c0,0,0.1,0,0.1,0c0.4-0.3,0.8-0.5,1.2-0.8c0.8-0.5,1.5-1,2.2-1.6
					c0.7-0.5,1.4-1,2.1-1.6c0.5-0.4,1.1-0.8,1.6-1.3c0.8-0.7,1.6-1.4,2.4-2.1c0.9-0.8,1.7-1.5,2.6-2.3c1.3-1.1,2.5-2.3,3.6-3.5
					c0.6-0.6,1.1-1.3,1.7-1.9c0.3-0.3,0.5-0.6,0.8-1c-0.6,0.2-1.3,0.5-1.9,0.7c-0.1,0.2-0.3,0.3-0.5,0.5c-0.4,0.5-0.8,0.9-1.3,1.4
					c-0.6,0.6-1.2,1.2-1.8,1.8c-0.5,0.5-1.1,1-1.6,1.5c-0.4,0.3-0.7,0.7-1.1,1c-0.4,0.4-0.8,0.8-1.2,1.2c-0.4,0.4-0.9,0.8-1.3,1.2
					c-0.8,0.7-1.6,1.5-2.4,2.2c-0.6,0.5-1.2,1-1.8,1.6c-0.5,0.5-1.1,0.9-1.6,1.4C81.8,86,81.2,86.5,80.5,87.1z"/>
				<path class="st3" d="M84.9,125.1L84.9,125.1C84.9,125.1,84.9,125.1,84.9,125.1C84.9,125.1,84.9,125.1,84.9,125.1z"/>
				<path class="st3" d="M115.3,69c-3-0.2-5.8-0.1-8.4,0.2c-0.1,0.3-0.2,0.6-0.3,0.9c-0.1,0.2-0.2,0.3-0.3,0.4
					c-1.1,0.7-2.2,1.3-3.4,2c-0.4,0.2-0.7,0.4-1.1,0.6c-0.1,0-0.1,0.1-0.2,0.1c0.3,0.1,0.5,0,0.7,0c0.2,0,0.5,0,0.7,0s0.5,0,0.7,0
					c0.2,0,0.5,0,0.7,0c0.2,0,0.5,0,0.7,0c0.2,0,0.5,0,0.7,0c0.1,0.1,0,0.2-0.1,0.2c-0.5,0.6-1,1.2-1.6,1.8
					c-0.6,0.7-1.1,1.3-1.6,1.9c-0.4,0.4-0.8,0.9-1.2,1.4c-0.4,0.5-0.8,0.9-1.2,1.4c-0.1,0.1-0.2,0.1-0.3,0.2c-0.3,0-0.7,0.1-1,0.1
					c-0.6,0.1-1.1,0.1-1.7,0.2c-0.4,0-0.8,0.1-1.2,0.1c-0.8,0.1-1.5,0.1-2.3,0.2c-0.1,0-0.1,0-0.2,0c0.4,0.1,0.8,0.2,1.2,0.3
					s0.8,0.1,1.2,0.2c0.4,0.1,0.8,0.2,1.2,0.2c0.4,0.1,0.8,0.1,1.2,0.2c0.4,0.1,0.8,0.1,1.2,0.2c-0.1,0.1-0.1,0.1-0.1,0.1
					c-0.7,0.3-1.4,0.7-2.1,1.1c-0.8,0.4-1.6,0.7-2.4,1.1c-0.5,0.2-1.1,0.5-1.6,0.7c-0.9,0.3-1.7,0.7-2.6,1c-0.9,0.3-1.8,0.7-2.7,0.9
					c-0.6,0.2-1.2,0.3-1.9,0.4c-0.4,0.1-0.8,0.1-1.2,0.2c-0.5,0.1-1,0.2-1.5,0.3c-1,0.3-2,0.7-3,1.1C80.3,89,80.2,89,80,89.1
					c0.2,0.3,0.3,0.6,0.5,0.9c-1.5,1.1-2.9,2.1-4.4,3.2c-0.1-0.1-0.2-0.2-0.3-0.3c-0.1,0.1-0.1,0.1-0.1,0.1c-0.5,0.5-0.9,1-1.4,1.5
					C74,95,73.7,95.5,73.4,96c-0.2,0.3-0.3,0.6-0.3,0.9c-0.1,0.4-0.1,0.9-0.2,1.4c0,0.1-0.1,0.2-0.2,0.2c-0.2,0.1-0.4,0.1-0.6,0.2
					c-0.6,0.2-1.2,0.5-1.8,0.9c-0.7,0.4-1.3,0.9-1.9,1.5c-0.1,0.1-0.3,0.3-0.4,0.4c-0.1,0.1-0.1,0.1-0.1,0.3c0,0.1-0.1,0.2-0.1,0.3
					c0,0-0.1,0.1-0.2,0.1c-0.1,0-0.1-0.1-0.1-0.1c0-0.2,0-0.3,0.2-0.4c0.1,0,0.2-0.1,0.2-0.2c0.4-0.7,0.9-1.5,1.3-2.2
					c0.4-0.6,0.6-1.3,1-2c0.1-0.1,0.1-0.3,0.1-0.5c0-0.1,0-0.1-0.1-0.1c0,0-0.1,0-0.2,0.1c-0.1,0.1-0.2,0.2-0.3,0.3
					c-0.4,0.5-0.7,1.1-1,1.6c-0.5,1-1,1.9-1.4,2.9c0,0.1-0.1,0.2,0,0.3c0.1,0.1,0,0.3-0.1,0.4c0,0-0.1,0.1-0.2,0
					c0,0-0.1-0.1-0.1-0.1c0-0.1,0-0.3,0.1-0.3c0.1-0.1,0.1-0.1,0.1-0.3c0-0.2,0.1-0.5,0.1-0.7c0.1-0.6,0.1-1.1,0.2-1.7
					c0.1-0.6,0.1-1.3,0.2-2c0-0.7,0.1-1.4,0.1-2.1c0-0.2,0.1-0.3,0.3-0.4c0.4-0.2,0.8-0.4,1.2-0.6c0.3-0.2,0.6-0.4,0.9-0.6
					c0.5-0.4,0.9-0.8,1.3-1.3c0.5-0.5,1.1-1,1.6-1.5c0.1-0.1,0.2-0.2,0.4-0.4c-0.1-0.1-0.2-0.2-0.3-0.4c1.6-1.4,3.3-2.7,5-3.9
					c0.3,0.3,0.4,0.7,0.6,1c0.2-0.2,0.4-0.4,0.5-0.6c0.6-0.7,1.3-1.5,1.8-2.3c0.5-0.7,0.9-1.4,1.2-2.2c0.3-0.7,0.6-1.4,1-2
					c0.1-0.3,0.3-0.5,0.5-0.7c-3.1-3.2-12.6-11.1-29.4-10l-23.8,41.3c0,0,30.3-1.5,54.3,14.8l0,0c23.9-16.3,54.2-14.8,54.2-14.8
					L115.3,69z"/>
				<path class="st3" d="M84.9,125.1C84.9,125.1,84.9,125.1,84.9,125.1C84.9,125.1,84.9,125.1,84.9,125.1z"/>
			</g>
			<path class="st4" d="M106.9,69.1c0.2-0.8,0.5-1.5,0.7-2.3c0.1-0.4,0.2-0.8,0.3-1.2c0.3-0.8,0.5-1.6,0.8-2.4c0-0.1,0-0.1,0-0.2
				c-1,0.3-1.9,0.7-2.9,1.1c0.1-0.1,0.1-0.2,0.1-0.2c0.2-0.2,0.3-0.4,0.5-0.6c0.5-0.5,1-1.1,1.5-1.6c0.2-0.2,0.4-0.4,0.6-0.6
				c0.1-0.1,0.1-0.2,0.1-0.3c0-0.2,0-0.3-0.1-0.5c-0.1-0.8-0.2-1.6-0.3-2.4c-0.1-0.7-0.2-1.5-0.3-2.2c-0.1-0.8-0.2-1.5-0.3-2.3
				c-0.1-0.7-0.2-1.3-0.3-1.9c-0.1-0.5-0.1-0.9-0.2-1.4c0-0.1,0-0.1-0.1-0.2c-0.1,0-0.1,0-0.1,0c-0.3,0.5-0.6,0.9-0.9,1.4
				c-0.5,0.8-1.1,1.5-1.7,2.2c-0.5,0.5-1,1.1-1.5,1.6c-0.6,0.6-1.3,1.2-1.9,1.7c-0.1,0.1-0.1,0.1-0.1,0.3c0,0.5-0.1,1-0.1,1.4
				c-0.1,0.6-0.1,1.2-0.2,1.8c-0.1,0.8-0.2,1.6-0.3,2.3c-0.1,0.4-0.1,0.8-0.2,1.2c0,0,0,0-0.1,0c0-0.1-0.1-0.2-0.1-0.2
				c-0.1-0.2-0.1-0.5-0.2-0.7c-0.2-0.6-0.3-1.2-0.5-1.8c-0.1-0.3-0.1-0.5-0.2-0.8c-0.1-0.6-0.3-1.1-0.5-1.7c0,0-0.1-0.1-0.1-0.1
				c0,0-0.1,0.1-0.1,0.1c-0.3,0.4-0.6,0.8-0.9,1.2c-0.5,0.8-1.1,1.5-1.6,2.2c-0.7,0.9-1.5,1.9-2.2,2.8c-0.6,0.7-1.2,1.4-1.8,2.1
				c-0.1,0.1-0.2,0.3-0.2,0.4c-0.1,0.5-0.1,1.1-0.2,1.6c0,0.2-0.1,0.5-0.1,0.7c-0.1,0.6-0.1,1.2-0.2,1.8c-0.1,0.5-0.2,1-0.3,1.5
				c0,0.1-0.1,0.3-0.1,0.4c0-0.1,0-0.1,0-0.1c-0.1-0.6-0.2-1.2-0.4-1.8c-0.2-0.7-0.5-1.4-0.7-2.1c0-0.1-0.1-0.2-0.2-0.2
				c-0.2,0.4-0.4,0.8-0.6,1.2c-0.3,0.5-0.5,0.9-0.8,1.4c-0.4,0.6-0.7,1.3-1.1,1.9c-0.4,0.7-0.8,1.4-1.3,2.1
				c-0.4,0.6-0.8,1.1-1.1,1.7c-0.3,0.4-0.6,0.9-0.9,1.3"/>
			<path class="st4" d="M98.1,70.5c0.2-0.3,0.5-0.6,0.7-0.9c0.4-0.6,0.9-1.2,1.3-1.8c0.4-0.6,0.8-1.2,1.2-1.7
				c0.5-0.8,1.1-1.7,1.6-2.6c0.4-0.8,0.9-1.6,1.3-2.4c0.4-0.7,0.7-1.4,1-2c0-0.1,0.1-0.1,0.1-0.1c0,0,0,0,0,0c0,0,0,0.1,0,0.1
				c-0.2,0.6-0.4,1.1-0.6,1.7c-0.3,0.7-0.6,1.4-0.9,2.1c-0.3,0.8-0.7,1.6-1.1,2.3c-0.3,0.4-0.5,0.9-0.8,1.4
				c-0.6,0.9-1.1,1.8-1.8,2.7"/>
			<g>
				<path class="st0" d="M63.9,102.7c0.7-0.2,1.7,0.4,2.5,0.5c0.2,0,1-0.1,1.1-0.1c0.7,0,0.7,0.5,1.1,0.8c0.8,0.5,1.8,0.8,2.5,0
					c0.2-0.2-0.1-0.6-0.4-0.4c-0.9,0.9-1.8-0.2-2.4-0.8c-0.2-0.2-0.6-0.2-0.9-0.2c-0.9,0-1.6,0.2-2.4-0.3c-0.4-0.2-0.8-0.2-1.3,0
					C63.4,102.3,63.6,102.8,63.9,102.7L63.9,102.7z"/>
			</g>
		</g>
		<g>
			<g>
				<path class="st5" d="M84.6,23.1c-9.5,0-17.3,7.8-17.3,17.3c0,9.6,7.8,17.4,17.4,17.3c9.6,0,17.3-7.8,17.3-17.4
					C102,30.9,94.2,23.1,84.6,23.1z M84.6,55.2c-8.2-0.1-14.7-6.7-14.7-14.7c0-8.2,6.7-14.8,14.8-14.7c8.2,0.1,14.8,6.7,14.7,14.8
					C99.3,48.7,92.7,55.3,84.6,55.2z M71.1,52.6c-0.8,0-1.4,0.6-1.4,1.4c0,0.7,0.6,1.3,1.4,1.3c0.7,0,1.4-0.6,1.4-1.4
					C72.5,53.2,71.8,52.6,71.1,52.6z M84.7,22.7c0.7,0,1.3-0.6,1.4-1.3c0-0.8-0.6-1.4-1.4-1.4c-0.7,0-1.3,0.6-1.3,1.3
					C83.3,22.1,83.9,22.7,84.7,22.7z M71.1,28.4c0.8,0,1.4-0.6,1.4-1.3c0-0.7-0.6-1.3-1.4-1.3c-0.8,0-1.4,0.6-1.4,1.4
					C69.7,27.8,70.3,28.4,71.1,28.4z M65.6,39.1c-0.8,0-1.4,0.6-1.4,1.3c0,0.8,0.6,1.3,1.4,1.3c0.7,0,1.3-0.6,1.4-1.3
					C66.9,39.8,66.3,39.1,65.6,39.1z M84.7,58.3c-0.8,0-1.4,0.6-1.4,1.3c0,0.8,0.6,1.4,1.4,1.4c0.7,0,1.3-0.6,1.4-1.3
					C86,58.9,85.4,58.3,84.7,58.3z M103.8,39.1c-0.8,0-1.4,0.6-1.4,1.4c0,0.8,0.6,1.3,1.4,1.3c0.7,0,1.3-0.6,1.3-1.3
					C105.2,39.7,104.6,39.1,103.8,39.1z M98.3,52.6c-0.8,0-1.4,0.6-1.4,1.3c0,0.8,0.6,1.4,1.3,1.4c0.7,0,1.3-0.6,1.4-1.3
					C99.7,53.2,99.1,52.6,98.3,52.6z M98.3,28.4c0.8,0,1.4-0.6,1.4-1.3c0-0.8-0.6-1.3-1.3-1.3c-0.8,0-1.4,0.6-1.4,1.4
					C96.9,27.8,97.5,28.4,98.3,28.4z M84.7,47.3c3.7,0,6.8-3.1,6.9-6.8c0-3.8-3.1-6.9-6.8-6.9s-6.8,3-6.9,6.8
					C77.8,44.2,80.9,47.3,84.7,47.3z M84.7,35.3c2.9,0,5.2,2.4,5.1,5.3c0,2.7-2.4,5-5.1,5c-2.9,0-5.2-2.3-5.1-5.3
					C79.6,37.6,81.9,35.2,84.7,35.3z M83.3,30.4c0.2-0.2,0.4-0.4,0.6-0.5c0.6-0.2,0.7-0.6,0.6-1.2c0-0.3,0-0.6,0-0.9v-1.6h-1.1
					c0,1.4,0,2.7-0.7,3.9C82.9,30.3,83.1,30.3,83.3,30.4z M73.9,40.1c0.2-0.3,0.5-0.7,0.7-1.1c-0.1-0.1-0.1-0.3-0.3-0.5
					c-1.2,0.7-2.5,0.7-3.9,0.7v1.1c1.1,0,2.2,0,3.3,0C73.7,40.3,73.8,40.2,73.9,40.1z M76,34.6c0.5-0.1,0.7-0.3,0.6-0.8
					c0-0.2,0.1-0.4,0.1-0.6c0-0.1,0-0.3-0.1-0.4c-0.7-0.8-1.5-1.5-2.3-2.3c-0.3,0.3-0.5,0.6-0.7,0.8C74.7,32.3,75.6,33.3,76,34.6z
					 M84,51.1c-0.1,0-0.2-0.1-0.2-0.2c-0.3-0.4-0.6-0.4-1-0.1c0.6,1.2,0.7,2.5,0.7,3.9h1c0-0.9,0-1.8,0-2.7
					C84.5,51.6,84.5,51.3,84,51.1z M94.9,38.8c-0.4,0.4,0.1,0.6,0.3,0.9c0.2,0.2,0.2,0.8,0.7,0.7c0.5-0.1,0.9,0,1.4,0h1.6v-1.1
					c-1.4,0-2.7,0-3.9-0.7C95,38.7,95,38.7,94.9,38.8z M76.6,32.2c0.3,0.3,0.6,0.6,1.1,0.3c0.1,0,0.2,0,0.2,0
					c0.5,0.1,0.7-0.2,0.8-0.6c-1.3-0.4-2.3-1.3-3.2-2.3c-0.3,0.2-0.5,0.5-0.8,0.7C75.4,30.9,76,31.5,76.6,32.2z M74.6,41.8
					c-0.2-0.2-0.4-0.3-0.5-0.5c-0.2-0.7-0.7-0.7-1.3-0.6c-0.3,0-0.5,0-0.8,0c-0.6,0-1.1,0-1.7,0v1.1c1.4,0,2.7,0,3.9,0.7
					C74.4,42.2,74.5,42,74.6,41.8z M85.1,29.7c0.3,0.2,0.7,0.4,1.1,0.7c0.1-0.1,0.3-0.2,0.5-0.3c-0.7-1.2-0.7-2.6-0.7-3.9h-1.1
					c0,1.1,0,2.2,0,3.3C84.9,29.6,85,29.6,85.1,29.7z M93.4,46.5c-0.5,0.1-0.7,0.3-0.6,0.8c0,0.2-0.1,0.4-0.1,0.6
					c0,0.1,0,0.3,0.1,0.4c0.7,0.8,1.5,1.5,2.3,2.3c0.3-0.3,0.5-0.6,0.7-0.8C94.7,48.7,93.8,47.7,93.4,46.5z M96.1,40.7
					c-0.4,0-0.7,0.1-0.8,0.5c0,0.1-0.1,0.2-0.2,0.3c-0.4,0.3-0.3,0.6-0.1,1c1.2-0.7,2.5-0.7,3.9-0.7v-1.1C98,40.7,97,40.8,96.1,40.7
					z M91.8,48.5c-0.1,0.1-0.3,0.1-0.4,0.1c-0.5-0.1-0.7,0.1-0.7,0.6c1.3,0.4,2.3,1.3,3.2,2.2c0.3-0.2,0.5-0.5,0.8-0.7
					c-0.7-0.7-1.4-1.3-2-2C92.4,48.5,92.1,48.3,91.8,48.5z M91.7,32.5c0.4,0.2,0.6,0.1,0.9-0.2c0.6-0.7,1.4-1.4,2.1-2.1
					c-0.3-0.3-0.6-0.5-0.8-0.7c-0.9,1-1.9,1.9-3.2,2.3c0.1,0.2,0.1,0.4,0.2,0.6C91.2,32.4,91.5,32.4,91.7,32.5z M76.8,47.9
					c-0.1-0.4-0.2-0.8-0.3-1.2c-0.1-0.1-0.3-0.1-0.5-0.2c-0.4,1.3-1.3,2.3-2.3,3.2c0.2,0.3,0.5,0.5,0.7,0.8c0.8-0.8,1.5-1.5,2.3-2.3
					C76.7,48.1,76.8,48,76.8,47.9z M78,48.6c-0.2,0-0.4-0.1-0.6-0.1c-0.1,0-0.3,0-0.3,0c-0.8,0.8-1.5,1.5-2.3,2.3
					c0.3,0.2,0.5,0.5,0.8,0.7c0.9-1,1.9-1.9,3.2-2.3C78.7,48.7,78.5,48.5,78,48.6z M86.1,50.6c-0.4,0.3-0.8,0.6-1.2,0.9v3.2H86
					c0-1.4,0-2.7,0.7-3.9C86.4,50.8,86.2,50.6,86.1,50.6z M93,32.5c-0.3,0.3-0.6,0.6-0.3,1c0.1,0.1,0.1,0.2,0.1,0.3
					c-0.1,0.5,0.1,0.7,0.6,0.8c0.4-1.3,1.3-2.3,2.3-3.2c-0.2-0.3-0.5-0.5-0.7-0.8C94.3,31.2,93.7,31.9,93,32.5z M84.4,49.2
					c0.1-0.1,0.1-0.2,0.1-0.2c0-0.4,0-0.7,0-1.1c-0.2,0-0.4-0.1-0.6-0.1c-0.1,0-0.2,0.1-0.2,0.2c-0.2,0.9-0.5,1.8-1.2,2.6
					C83.3,50.2,83.9,49.7,84.4,49.2z M92,40.3c0.5,0,0.9,0,1.3-0.1c0.4-0.1,1.2-1.4,1.3-1.9c-0.8,0.6-1.7,0.9-2.7,1.2
					C91.9,39.8,91.9,40,92,40.3z M90.5,44.9c-0.2,0.2-0.4,0.4-0.6,0.7c0.4,0.3,0.7,0.8,1.1,0.9c0.7,0.2,1.5,0,2.2-0.4
					C92.2,45.9,91.3,45.4,90.5,44.9z M89.6,45.8c-0.2,0.2-0.4,0.3-0.5,0.4c0.4,1,0.8,1.8,1.2,2.8c0.1-0.5,0.2-0.9,0.3-1.4
					C90.9,46.7,90.2,46.3,89.6,45.8z M83.7,33.3c0.3,0,0.5-0.1,0.8-0.1c0-0.5,0.1-1-0.1-1.3c-0.4-0.6-1.1-1.1-1.8-1.3
					c0.3,0.5,0.5,0.9,0.7,1.3C83.4,32.3,83.5,32.8,83.7,33.3z M85.1,47.7c-0.1,0-0.1,0-0.2,0.1c0,0.2,0,0.5,0,0.7
					c0,0.2,0,0.5,0.1,0.6c0.5,0.6,1.1,1.1,1.8,1.3c-0.3-0.7-0.6-1.4-0.9-2.2C85.7,47.7,85.7,47.7,85.1,47.7z M74.8,38.4
					c0.2,1.3,1.3,2.1,2.6,1.8c0-0.3,0-0.5,0.1-0.7c-0.5-0.2-1-0.3-1.4-0.5C75.6,38.9,75.2,38.6,74.8,38.4z M93.4,40.8
					c-0.1-0.1-0.1-0.1-0.2-0.1c-0.4,0-0.8,0-1.2,0c0,0.3-0.1,0.5-0.1,0.8c1,0.2,1.9,0.5,2.8,1.2C94.4,41.9,93.9,41.3,93.4,40.8z
					 M85,31.8c-0.1,0.1-0.1,0.2-0.1,0.3c0,0.3,0,0.7,0,1.1c0.3,0,0.6,0,0.7,0.1c0.4-0.9,0.8-1.8,1.1-2.7
					C86.1,30.8,85.5,31.3,85,31.8z M78.9,36c0.1-0.1,0.3-0.3,0.5-0.6c-0.3-0.3-0.6-0.8-0.9-0.8c-0.8-0.2-1.5,0-2.2,0.3
					C77.1,35.3,78,35.6,78.9,36z M77.4,40.8c-0.5,0-1-0.2-1.3,0c-0.6,0.4-1.1,1.1-1.3,1.8c0.9-0.4,1.7-0.7,2.7-1.1
					C77.4,41.3,77.4,41,77.4,40.8z M78.9,45c-0.9,0.4-1.8,0.8-2.6,1.1c0.3,0.2,1.4,0.6,1.9,0.4c0.4-0.2,0.8-0.6,1.2-0.9
					C79.2,45.3,79,45.1,78.9,45z M78.8,46.8c-0.2,0.8,0,1.5,0.4,2.3c0.1-1.1,0.5-2,1.1-2.8c-0.2-0.2-0.4-0.3-0.6-0.5
					C79.4,46.1,78.9,46.4,78.8,46.8z M90.6,34.2c0.2-0.7,0-1.5-0.3-2.1c-0.4,0.9-0.7,1.8-1.1,2.7c0.1,0.1,0.3,0.3,0.6,0.5
					C90,34.9,90.5,34.5,90.6,34.2z M79.6,35.2c0.3-0.2,0.5-0.4,0.7-0.6c-0.6-0.8-0.9-1.7-1.1-2.7c-0.3,0.4-0.6,1.4-0.4,2.1
					C78.9,34.5,79.3,34.8,79.6,35.2z M91.1,34.6c-0.4,0.1-0.8,0.6-1.1,0.9c0.2,0.3,0.4,0.4,0.6,0.7c0.8-0.6,1.7-1,2.8-1.1
					C92.6,34.6,91.8,34.5,91.1,34.6z M78.4,32.9c-1-0.1-1.5,0.4-1.3,1.3c0.4,0,0.8-0.1,1.2-0.1C78.3,33.7,78.4,33.3,78.4,32.9z
					 M74.9,41.5c0.3-0.3,0.6-0.6,0.8-0.9c-0.3-0.3-0.5-0.6-0.8-0.9C74,40.2,74,40.8,74.9,41.5z M85.6,50.3c-0.3-0.3-0.6-0.5-1-0.8
					c-0.3,0.3-0.6,0.5-0.9,0.8C84.4,51.2,85,51.2,85.6,50.3z M77.1,46.8c-0.1,1,0.4,1.6,1.3,1.3c0-0.4-0.1-0.8-0.1-1.2
					c-0.2,0-0.4,0-0.6,0C77.5,46.8,77.3,46.8,77.1,46.8z M83.8,30.7c0.3,0.3,0.6,0.5,0.9,0.8c0.3-0.3,0.6-0.5,0.9-0.8
					C85,29.8,84.2,29.9,83.8,30.7z M94.5,39.6c-0.3,0.3-0.6,0.6-0.8,0.9c0.3,0.3,0.5,0.6,0.8,0.9C95.3,40.8,95.3,40.2,94.5,39.6z
					 M91,32.9c0,0.4,0.1,0.8,0.1,1.2c0.4,0,0.8,0.1,1.2,0.1C92.5,33.2,91.9,32.7,91,32.9z M91,48.1c1,0.2,1.5-0.3,1.3-1.3
					c-0.4,0-0.8,0.1-1.2,0.1C91,47.3,91,47.7,91,48.1z M82.3,39.6c0.1,0.9,1,1.4,1.8,1.1c0.2-0.1,0.3-0.1,0.3-0.4
					c0-0.4,0.1-0.8,0.2-1.1c0.6-1,1.8-1.2,2.8-0.4c1.1,0.8,1.6,1.9,1.6,3.3c0.3-0.8,0.4-1.7,0.3-2.5c-0.2-1.2-0.8-2.1-1.7-2.9
					c-0.7-0.6-1.5-0.7-2.4-0.7C83.3,36.1,82.1,38,82.3,39.6z M85,43c0.7-0.5,0.8-1.6,0.1-2.2c-0.1-0.1-0.3-0.1-0.4,0
					c-0.5,0.4-1.1,0.4-1.6,0.2c-0.9-0.3-1.4-1.3-1.2-2.4c0.3-1.3,1-2.3,2.3-2.9c-0.9,0-2,0.5-2.8,1.2c-1.5,1.4-1.9,3.6-0.8,5.2
					C81.5,43.7,83.7,44,85,43z M86.5,38.8c-0.8-0.2-1.6,0.3-1.7,1.1c0,0.2,0,0.3,0.3,0.4c0.2,0.1,0.4,0.3,0.6,0.4
					c0.8,1,0.5,2.3-0.7,2.8c-1.3,0.6-2.6,0.6-3.8-0.2c1.1,1.3,2.6,1.9,4.3,1.7c1.5-0.2,2.6-0.9,3.1-2.4C88.9,41.2,88,39.2,86.5,38.8
					z"/>
			</g>
		</g>
		<g>
			<path class="st6" d="M59.9,139.1c0,0.1,0,0.2,0,0.2c0,0.1,0,0.1-0.1,0.2c0,0.1-0.1,0.1-0.1,0.1s-0.1,0-0.1,0h-4.5
				c-0.1,0-0.2,0-0.3-0.1s-0.2-0.2-0.2-0.4v-8.4c0-0.2,0.1-0.3,0.2-0.4c0.1-0.1,0.2-0.1,0.3-0.1h4.5c0,0,0.1,0,0.1,0
				c0,0,0.1,0.1,0.1,0.1c0,0,0,0.1,0.1,0.2c0,0.1,0,0.1,0,0.2c0,0.1,0,0.2,0,0.2c0,0.1,0,0.1-0.1,0.2c0,0-0.1,0.1-0.1,0.1
				c0,0-0.1,0-0.1,0H56v3h3.2c0,0,0.1,0,0.1,0s0.1,0.1,0.1,0.1c0,0,0,0.1,0.1,0.2s0,0.1,0,0.2c0,0.1,0,0.2,0,0.2
				c0,0.1,0,0.1-0.1,0.1c0,0-0.1,0.1-0.1,0.1s-0.1,0-0.1,0H56v3.4h3.8c0,0,0.1,0,0.1,0s0.1,0.1,0.1,0.1c0,0,0,0.1,0.1,0.2
				C59.9,138.9,59.9,139,59.9,139.1z"/>
			<path class="st6" d="M66,137.7c0,0.3-0.1,0.6-0.2,0.9c-0.1,0.3-0.3,0.5-0.5,0.7c-0.2,0.2-0.5,0.3-0.8,0.4s-0.7,0.1-1,0.1
				c-0.2,0-0.4,0-0.7-0.1c-0.2,0-0.4-0.1-0.6-0.1s-0.3-0.1-0.4-0.2s-0.2-0.1-0.3-0.2c-0.1-0.1-0.1-0.1-0.1-0.2c0-0.1,0-0.2,0-0.4
				c0-0.1,0-0.2,0-0.2s0-0.1,0-0.1c0,0,0-0.1,0.1-0.1c0,0,0.1,0,0.1,0c0.1,0,0.1,0,0.2,0.1c0.1,0.1,0.2,0.1,0.4,0.2
				c0.2,0.1,0.3,0.1,0.6,0.2c0.2,0.1,0.4,0.1,0.7,0.1c0.2,0,0.4,0,0.6-0.1c0.2,0,0.3-0.1,0.4-0.2c0.1-0.1,0.2-0.2,0.3-0.3
				c0.1-0.1,0.1-0.3,0.1-0.5c0-0.2-0.1-0.3-0.1-0.5s-0.2-0.2-0.4-0.3c-0.2-0.1-0.3-0.2-0.5-0.3c-0.2-0.1-0.4-0.1-0.6-0.2
				c-0.2-0.1-0.4-0.2-0.6-0.3c-0.2-0.1-0.4-0.2-0.5-0.4c-0.2-0.1-0.3-0.3-0.4-0.5c-0.1-0.2-0.1-0.5-0.1-0.8c0-0.3,0.1-0.5,0.2-0.7
				c0.1-0.2,0.3-0.4,0.4-0.6s0.4-0.3,0.8-0.4c0.3-0.1,0.7-0.2,1.1-0.2c0.2,0,0.3,0,0.5,0c0.2,0,0.3,0.1,0.5,0.1
				c0.1,0,0.3,0.1,0.4,0.1c0.1,0.1,0.2,0.1,0.2,0.1c0.1,0,0.1,0.1,0.1,0.1s0,0.1,0,0.1c0,0,0,0.1,0,0.1c0,0.1,0,0.1,0,0.2
				s0,0.1,0,0.2c0,0.1,0,0.1,0,0.1c0,0,0,0.1-0.1,0.1c0,0-0.1,0-0.1,0c-0.1,0-0.1,0-0.2-0.1s-0.2-0.1-0.3-0.2
				c-0.1-0.1-0.3-0.1-0.5-0.2c-0.2-0.1-0.4-0.1-0.6-0.1c-0.2,0-0.4,0-0.5,0.1s-0.3,0.1-0.4,0.2c-0.1,0.1-0.2,0.2-0.2,0.3
				c-0.1,0.1-0.1,0.3-0.1,0.4c0,0.2,0.1,0.4,0.2,0.5c0.1,0.1,0.2,0.2,0.4,0.3c0.2,0.1,0.3,0.2,0.5,0.3s0.4,0.2,0.6,0.2
				s0.4,0.2,0.6,0.3s0.4,0.2,0.5,0.4c0.2,0.1,0.3,0.3,0.4,0.5C65.9,137.1,66,137.4,66,137.7z"/>
			<path class="st6" d="M70.9,139c0,0.1,0,0.3,0,0.3s-0.1,0.1-0.1,0.2s-0.1,0.1-0.2,0.1c-0.1,0-0.2,0.1-0.3,0.1s-0.2,0-0.3,0.1
				c-0.1,0-0.2,0-0.3,0c-0.3,0-0.6-0.1-0.9-0.1c-0.2-0.1-0.4-0.2-0.6-0.4c-0.1-0.2-0.3-0.4-0.3-0.7c-0.1-0.3-0.1-0.6-0.1-1v-3.8
				h-0.9c-0.1,0-0.1,0-0.2-0.1c0-0.1-0.1-0.2-0.1-0.4c0-0.1,0-0.2,0-0.2c0-0.1,0-0.1,0.1-0.1s0.1-0.1,0.1-0.1c0,0,0.1,0,0.1,0h0.9
				v-1.6c0,0,0-0.1,0-0.1c0,0,0.1-0.1,0.1-0.1s0.1,0,0.2-0.1c0.1,0,0.2,0,0.3,0s0.2,0,0.3,0c0.1,0,0.1,0,0.2,0.1S69,131,69,131
				c0,0,0,0.1,0,0.1v1.6h1.7c0,0,0.1,0,0.1,0c0,0,0.1,0.1,0.1,0.1s0,0.1,0.1,0.1c0,0.1,0,0.1,0,0.2c0,0.2,0,0.3-0.1,0.4
				s-0.1,0.1-0.2,0.1H69v3.7c0,0.4,0.1,0.8,0.2,1c0.1,0.2,0.4,0.4,0.7,0.4c0.1,0,0.2,0,0.3,0s0.2,0,0.2-0.1c0.1,0,0.1-0.1,0.2-0.1
				c0.1,0,0.1,0,0.1,0c0,0,0.1,0,0.1,0c0,0,0,0,0.1,0.1c0,0,0,0.1,0,0.1C70.9,138.8,70.9,138.9,70.9,139z"/>
			<path class="st6" d="M78,139.4c0,0,0,0.1,0,0.1s-0.1,0.1-0.1,0.1c0,0-0.1,0-0.2,0c-0.1,0-0.1,0-0.3,0s-0.2,0-0.3,0
				c-0.1,0-0.1,0-0.2,0c0,0-0.1,0-0.1-0.1c0,0,0-0.1,0-0.1v-0.9c-0.3,0.4-0.7,0.7-1.1,0.9c-0.4,0.2-0.8,0.3-1.2,0.3
				c-0.5,0-0.9-0.1-1.2-0.3c-0.4-0.2-0.6-0.4-0.8-0.8c-0.2-0.3-0.4-0.7-0.5-1.1c-0.1-0.4-0.1-0.9-0.1-1.4c0-0.6,0.1-1.1,0.2-1.5
				c0.1-0.5,0.3-0.8,0.5-1.2c0.2-0.3,0.5-0.6,0.9-0.7s0.8-0.3,1.2-0.3c0.4,0,0.7,0.1,1.1,0.3c0.3,0.2,0.6,0.4,0.9,0.7v-3.8
				c0,0,0-0.1,0-0.1s0.1-0.1,0.1-0.1c0.1,0,0.1,0,0.2-0.1c0.1,0,0.2,0,0.3,0s0.2,0,0.3,0c0.1,0,0.1,0,0.2,0.1s0.1,0,0.1,0.1
				c0,0,0,0.1,0,0.1L78,139.4L78,139.4z M76.8,134.8c-0.3-0.4-0.6-0.7-0.9-0.9c-0.3-0.2-0.6-0.3-0.9-0.3c-0.3,0-0.6,0.1-0.8,0.2
				c-0.2,0.1-0.4,0.3-0.5,0.6s-0.2,0.5-0.3,0.8s-0.1,0.6-0.1,0.9c0,0.3,0,0.6,0.1,1c0.1,0.3,0.1,0.6,0.3,0.8
				c0.1,0.2,0.3,0.4,0.5,0.6c0.2,0.1,0.5,0.2,0.8,0.2c0.2,0,0.3,0,0.5-0.1c0.1,0,0.3-0.1,0.4-0.2c0.2-0.1,0.3-0.2,0.5-0.4
				c0.2-0.2,0.4-0.4,0.5-0.6L76.8,134.8L76.8,134.8z"/>
			<path class="st6" d="M81.8,138.8c0,0.4-0.1,0.6-0.2,0.7s-0.3,0.2-0.6,0.2c-0.3,0-0.5-0.1-0.6-0.2c-0.1-0.1-0.2-0.3-0.2-0.7
				c0-0.3,0.1-0.6,0.2-0.7s0.3-0.2,0.6-0.2c0.3,0,0.5,0.1,0.6,0.2C81.7,138.3,81.8,138.5,81.8,138.8z"/>
			<path class="st6" d="M93,139.1c0,0.1,0,0.2,0,0.2c0,0.1,0,0.1-0.1,0.2s-0.1,0.1-0.1,0.1c0,0-0.1,0-0.1,0h-5.2c-0.1,0-0.1,0-0.2,0
				c-0.1,0-0.1-0.1-0.1-0.1c0,0-0.1-0.1-0.1-0.2c0-0.1,0-0.2,0-0.3c0-0.1,0-0.2,0-0.3c0-0.1,0-0.1,0.1-0.2c0-0.1,0.1-0.1,0.1-0.2
				c0-0.1,0.1-0.1,0.1-0.2l1.9-1.9c0.4-0.4,0.8-0.9,1.1-1.2c0.3-0.4,0.5-0.7,0.6-1c0.1-0.3,0.2-0.6,0.3-0.8c0.1-0.2,0.1-0.5,0.1-0.7
				c0-0.2,0-0.4-0.1-0.6c-0.1-0.2-0.2-0.4-0.3-0.5s-0.3-0.3-0.5-0.3s-0.4-0.1-0.7-0.1c-0.3,0-0.6,0-0.8,0.1
				c-0.3,0.1-0.5,0.2-0.6,0.3s-0.3,0.2-0.5,0.3c-0.1,0.1-0.2,0.1-0.3,0.1c0,0-0.1,0-0.1,0c0,0-0.1-0.1-0.1-0.1s0-0.1,0-0.2
				c0-0.1,0-0.2,0-0.3c0-0.1,0-0.1,0-0.2c0-0.1,0-0.1,0-0.1c0,0,0-0.1,0.1-0.1s0.1-0.1,0.1-0.1s0.2-0.1,0.3-0.2
				c0.1-0.1,0.3-0.2,0.5-0.3c0.2-0.1,0.5-0.2,0.7-0.2s0.5-0.1,0.8-0.1c0.5,0,0.9,0.1,1.2,0.2c0.3,0.1,0.6,0.3,0.9,0.5
				c0.2,0.2,0.4,0.5,0.5,0.8c0.1,0.3,0.2,0.6,0.2,0.9c0,0.3,0,0.6-0.1,0.9c-0.1,0.3-0.2,0.6-0.3,1s-0.4,0.7-0.8,1.2
				c-0.3,0.4-0.8,0.9-1.3,1.5l-1.5,1.6h4.1c0,0,0.1,0,0.1,0c0,0,0.1,0.1,0.1,0.1c0,0,0.1,0.1,0.1,0.2C93,138.9,93,139,93,139.1z"/>
			<path class="st6" d="M100.9,134.9c0,0.7-0.1,1.4-0.2,2c-0.1,0.6-0.3,1.1-0.6,1.5c-0.3,0.4-0.6,0.8-1,1s-1,0.4-1.6,0.4
				c-0.6,0-1.1-0.1-1.5-0.3c-0.4-0.2-0.7-0.5-1-0.9c-0.3-0.4-0.4-0.9-0.5-1.5c-0.1-0.6-0.2-1.3-0.2-2.1c0-0.7,0.1-1.4,0.2-2
				c0.1-0.6,0.3-1.1,0.6-1.6c0.3-0.4,0.6-0.8,1-1s0.9-0.4,1.6-0.4c0.6,0,1.1,0.1,1.5,0.3c0.4,0.2,0.7,0.5,1,0.9
				c0.3,0.4,0.4,0.9,0.5,1.5C100.8,133.4,100.9,134.1,100.9,134.9z M99.6,135c0-0.5,0-0.9-0.1-1.3c0-0.4-0.1-0.7-0.1-1
				c-0.1-0.3-0.1-0.5-0.3-0.7s-0.2-0.4-0.4-0.5c-0.1-0.1-0.3-0.2-0.5-0.3s-0.4-0.1-0.6-0.1c-0.4,0-0.8,0.1-1,0.3
				c-0.3,0.2-0.5,0.5-0.6,0.8s-0.3,0.7-0.3,1.2c-0.1,0.5-0.1,0.9-0.1,1.5c0,0.7,0,1.3,0.1,1.8s0.2,0.9,0.4,1.2
				c0.2,0.3,0.4,0.5,0.6,0.7s0.5,0.2,0.9,0.2c0.3,0,0.5,0,0.7-0.1c0.2-0.1,0.4-0.2,0.5-0.4c0.1-0.2,0.3-0.4,0.4-0.6
				c0.1-0.2,0.2-0.5,0.2-0.8s0.1-0.6,0.1-0.9C99.6,135.7,99.6,135.3,99.6,135z"/>
			<path class="st6" d="M108.2,139.1c0,0.1,0,0.2,0,0.2c0,0.1,0,0.1-0.1,0.1c0,0-0.1,0.1-0.1,0.1c0,0-0.1,0-0.1,0H103
				c0,0-0.1,0-0.1,0c0,0-0.1-0.1-0.1-0.1c0,0-0.1-0.1-0.1-0.1s0-0.1,0-0.2s0-0.2,0-0.2c0-0.1,0-0.1,0.1-0.1c0,0,0.1-0.1,0.1-0.1
				c0,0,0.1,0,0.1,0h2v-7.2l-1.8,1.1c-0.1,0.1-0.2,0.1-0.2,0.1c-0.1,0-0.1,0-0.1,0c0,0-0.1-0.1-0.1-0.2c0-0.1,0-0.2,0-0.3
				c0-0.1,0-0.1,0-0.2c0-0.1,0-0.1,0-0.1c0,0,0-0.1,0.1-0.1s0.1-0.1,0.1-0.1l2.2-1.4c0,0,0,0,0.1,0c0,0,0.1,0,0.1,0s0.1,0,0.1,0
				c0.1,0,0.1,0,0.2,0c0.1,0,0.2,0,0.3,0c0.1,0,0.1,0,0.2,0c0.1,0,0.1,0,0.1,0.1c0,0,0,0.1,0,0.1v8.3h1.7c0,0,0.1,0,0.1,0
				c0,0,0.1,0.1,0.1,0.1s0,0.1,0.1,0.1C108.2,139,108.2,139,108.2,139.1z"/>
			<path class="st6" d="M115.8,134.5c0,0.4,0,0.8-0.1,1.2c-0.1,0.4-0.1,0.8-0.3,1.2s-0.3,0.8-0.5,1.1s-0.4,0.6-0.7,0.9
				s-0.6,0.4-1.1,0.6c-0.4,0.1-0.9,0.2-1.4,0.2c-0.2,0-0.4,0-0.6,0s-0.4-0.1-0.5-0.1c-0.2,0-0.3-0.1-0.4-0.1s-0.2-0.1-0.2-0.1
				c-0.1,0-0.1-0.1-0.1-0.2c0-0.1,0-0.2,0-0.3c0-0.1,0-0.2,0-0.3c0-0.1,0-0.1,0-0.1c0,0,0-0.1,0.1-0.1c0,0,0.1,0,0.1,0
				c0.1,0,0.1,0,0.2,0.1c0.1,0,0.2,0.1,0.4,0.1c0.1,0,0.3,0.1,0.5,0.1c0.2,0,0.4,0.1,0.7,0.1c0.5,0,0.9-0.1,1.2-0.3
				c0.3-0.2,0.6-0.4,0.8-0.7c0.2-0.3,0.4-0.7,0.5-1.1c0.1-0.4,0.2-0.8,0.2-1.3c-0.3,0.1-0.6,0.3-0.9,0.4c-0.4,0.1-0.8,0.2-1.2,0.2
				c-0.5,0-1-0.1-1.3-0.2s-0.6-0.3-0.9-0.6s-0.4-0.5-0.5-0.9c-0.1-0.3-0.1-0.7-0.1-1.1c0-0.4,0.1-0.8,0.2-1.2c0.1-0.4,0.3-0.7,0.6-1
				c0.3-0.3,0.6-0.5,1-0.7c0.4-0.2,0.9-0.3,1.4-0.3c0.4,0,0.7,0.1,1,0.1c0.3,0.1,0.6,0.3,0.8,0.4c0.2,0.2,0.4,0.4,0.6,0.7
				c0.2,0.3,0.3,0.6,0.4,0.9c0.1,0.3,0.2,0.7,0.2,1.1C115.8,133.7,115.8,134.1,115.8,134.5z M114.5,134.4c0-0.6,0-1.1-0.1-1.6
				c-0.1-0.4-0.2-0.8-0.4-1c-0.2-0.3-0.4-0.4-0.6-0.6c-0.2-0.1-0.5-0.2-0.8-0.2s-0.6,0.1-0.8,0.2c-0.2,0.1-0.4,0.3-0.6,0.5
				s-0.3,0.4-0.3,0.6c-0.1,0.2-0.1,0.5-0.1,0.8c0,0.3,0,0.6,0.1,0.8c0.1,0.2,0.2,0.4,0.3,0.6c0.1,0.2,0.3,0.3,0.5,0.4
				c0.2,0.1,0.5,0.1,0.8,0.1c0.4,0,0.7-0.1,1.1-0.2C114,134.7,114.3,134.6,114.5,134.4z"/>
		</g>
	</g>
</g>
</svg>
