<?xml version="1.0" encoding="utf-8"?>
<!-- Generator: Adobe Illustrator 24.0.1, SVG Export Plug-In . SVG Version: 6.00 Build 0)  -->
<svg version="1.1" id="Layer_1" xmlns="http://www.w3.org/2000/svg" xmlns:xlink="http://www.w3.org/1999/xlink" x="0px" y="0px"
	 viewBox="0 0 612 792" style="enable-background:new 0 0 612 792;" xml:space="preserve">
<style type="text/css">
	.st0{fill:#FFFFFF;}
	.st1{fill-rule:evenodd;clip-rule:evenodd;fill:#00A551;}
	.st2{fill:#37B34A;}
	.st3{fill:#2E3191;}
	.st4{fill:none;stroke:#2E3191;stroke-width:1.0995;stroke-miterlimit:10;}
	.st5{fill-rule:evenodd;clip-rule:evenodd;fill:#F05A28;}
	.st6{fill:#231F20;}
</style>
<g>
	<g>
		<path class="st0" d="M88.92,183.21h118.33c15.92-15.45,25.84-37.06,25.84-61c0-46.94-38.06-85-85-85s-85,38.06-85,85
			C63.08,146.15,72.99,167.77,88.92,183.21z"/>
	</g>
	<g>
		<path class="st1" d="M70.86,112.25c0.6-1.91,1.15-3.83,1.83-5.7c0.24-0.67,0.78-1.25,1.25-1.8c1.95-2.28,2.83-4.94,2.75-7.9
			c-0.06-2.24-0.87-4.22-2.77-5.84c5.27-0.04,7.84-3.19,9.35-7.53c0.38-1.1,0.4-2.32,0.58-3.48c0.43-2.75,1.77-5,3.85-6.79
			c2.75-2.36,5.7-2.18,8.78-0.62c1.25,0.63,2.59,1.1,4.16,1.37c-0.58-1.48-0.99-3.06-1.78-4.42c-2.77-4.76,0.48-9.17,4.33-11.03
			c1.39-0.67,2.97-1.11,4.51-1.28c5.75-0.63,8.98-3.57,9.91-9.4c1.99,1.9,4.32,2.74,6.98,2.48c2.61-0.26,4.89-1.28,6.93-2.98
			c3.68-3.05,8.57-3.62,11.89-1.26c1.05,0.74,1.78,2.04,2.4,3.23c0.86,1.64,1.48,3.41,2.38,5.57c0.78-1.84,1.39-3.3,2-4.74
			c0.71-1.68,1.45-3.26,3.12-4.33c3.07-1.97,8.5-1.23,11.67,1.66c1.97,1.79,4.33,2.66,6.95,2.9c2.66,0.25,4.9-0.69,6.88-2.44
			c0.95,5.84,3.88,8.64,9.81,9.36c3.26,0.4,6.05,1.65,8.16,4.24c1.77,2.16,2.34,4.48,1.15,7.13c-0.82,1.83-1.54,3.69-2.45,5.89
			c1.89-0.76,3.51-1.28,5.01-2.05c4.47-2.32,8.44-0.06,10.52,3.78c0.93,1.72,1.39,3.76,1.7,5.71c0.61,3.75,3.18,8.96,9.52,9.3
			c-1.8,1.7-2.65,3.73-2.64,6.06c0.01,2.91,1.01,5.49,2.89,7.72c2.48,2.95,3.4,6.29,2.39,10.05c-0.54,2-1.82,3.46-3.79,4.26
			c-1.85,0.76-3.68,1.54-5.93,2.49c1.23,0.56,2.12,0.98,3.02,1.36c1.04,0.44,2.12,0.79,3.14,1.27c2.25,1.04,3.5,2.87,3.81,5.27
			c0.41,3.21-0.34,6.18-2.46,8.69c-2.46,2.91-3.76,6.17-2.79,9.96c0.38,1.49,1.33,2.84,1.98,4.16c-4.89,0.3-8.59,3.92-9.14,9.27
			c-0.35,3.41-1.55,6.36-4.27,8.61c-2.08,1.73-4.33,2.25-6.84,1.27c-2.1-0.82-4.17-1.74-6.34-2.65
			c13.64-14.24,20.38-31.1,19.39-50.71c-0.9-17.67-7.85-32.81-20.77-44.98c-27.36-25.76-67.16-22.39-90.32-1.09
			C89.61,85.1,82.12,101.01,81.6,119.98c-0.52,18.92,6.16,35.14,19.4,49.01c-2.76,1.06-5.31,2.37-8.02,2.99
			c-2.73,0.63-4.97-0.98-6.68-3.01c-1.72-2.04-2.57-4.47-2.76-7.19c-0.27-3.83-3.39-9.44-9.26-9.34c0.63-1.07,1.45-2.08,1.85-3.24
			c1.32-3.83,0.36-7.31-2.13-10.35c-2.54-3.1-3.6-6.52-2.56-10.45c0.52-1.96,1.78-3.36,3.68-4.15c1.9-0.78,3.79-1.57,6.08-2.51
			c-1.7-0.75-2.97-1.46-4.33-1.87c-3.55-1.08-5.52-3.41-6.01-7.05C70.86,112.64,70.86,112.45,70.86,112.25z"/>
		<path class="st2" d="M101.79,102.66c4.51,5.74,2.79,12.55-3.53,14.89c1.74,4.18,1.4,6.27-1.26,7.97c-1.88,1.2-4.63,0.56-6.85-1.48
			c0.14,0.66,0.21,1.36,0.44,1.99c1.34,3.64,2.71,7.27,4.08,10.91c0.14,0.37,0.41,0.71,0.46,1.08c0.04,0.33-0.14,0.69-0.23,1.04
			c-0.29-0.19-0.69-0.3-0.86-0.57c-2.56-4.06-3.97-8.58-4.98-13.21c-2.26-10.33-1.27-20.43,2.91-30.1
			c3.89-8.98,10.04-16.19,18.24-21.58c4.6-3.02,9.59-5.22,14.93-6.6c0.33-0.08,0.61-0.3,0.92-0.45c1-0.45,1.85-0.36,2.66,0.9
			c-8.13,1.8-15.5,4.88-21.81,10.17c1.17,0.58,2.42,0.95,3.34,1.72c1.86,1.55,2.16,4.15,0.96,6.15c-1.19,1.96-3.7,2.92-5.93,1.99
			c-6.5-2.71-11.02,3.59-9.85,8.58c0.69,2.95,4.29,5.72,7.23,5.32c2.08-0.28,3.76-2.53,3.74-5.01c-0.02-2.39-1.6-4.27-3.82-4.52
			c-1.33-0.15-2.55,0.74-2.98,2.16c-0.37,1.22,0.25,2.77,1.44,3.2c0.43,0.15,1.23,0.03,1.49-0.27c0.23-0.28-0.01-0.99-0.1-1.5
			c-0.07-0.38-0.22-0.74-0.34-1.11c0.42,0.11,0.94,0.11,1.25,0.36c1.05,0.86,0.85,1.94,0.21,2.92c-0.67,1.04-2.22,1.24-3.31,0.55
			c-1.84-1.17-2.37-3.12-1.41-5.17c0.91-1.94,2.86-2.78,4.93-2.13c2.19,0.69,3.98,3.47,3.83,5.93c-0.16,2.59-2.1,5.1-4.34,5.6
			C102.82,102.47,102.4,102.54,101.79,102.66z M89.71,119.7c1.25-2.43,3.03-3.53,5.6-3.37c4.31,0.27,6.58-1.4,7.65-5.62
			c1.18-4.62-2.43-9.02-7.23-8.83c-2.58,0.11-4.51,2.32-4.34,4.99c0.16,2.64,2.34,4.75,4.78,4.64c1.43-0.07,2.62-1.36,2.64-2.86
			c0.01-1.53-0.95-2.65-2.47-2.67c-0.42-0.01-1.14,0.37-1.18,0.65c-0.06,0.43,0.33,0.94,0.57,1.38c0.17,0.3,0.42,0.55,0.64,0.83
			c-0.38,0.08-0.87,0.35-1.12,0.2c-0.47-0.27-0.96-0.72-1.15-1.22c-0.39-0.98-0.24-1.96,0.66-2.66c1.09-0.84,2.24-0.62,3.31,0.01
			c1.89,1.11,2.42,3.4,1.32,5.42c-1.06,1.96-3.55,2.67-5.63,1.67c-2.37-1.14-3.28-3.2-3.72-5.64
			C89.37,110.97,88.97,115.32,89.71,119.7z M110.58,84.07c0.65-2.04-0.41-4.1-2.42-4.69c-2.08-0.62-4.12,0.35-4.69,2.4
			c-0.69,2.48,0.26,3.79,2.7,4.78C107.87,87.24,109.98,85.98,110.58,84.07z M98.12,122.4c0.69-1.89-0.29-3.99-2.19-4.68
			c-2.08-0.76-4.15,0.22-4.89,2.3c-0.71,2,0.36,4.06,2.49,4.78C95.41,125.44,97.39,124.41,98.12,122.4z M96.48,100.71
			c-0.98-2.08-1.9-4.06-2.84-6.07c-1.04,3.12-2.1,6.29-3.16,9.46C91.85,101.6,93.95,100.63,96.48,100.71z M101.89,82.23
			c-1.1,1.36-2.1,2.58-3.27,4.03c1.62-0.29,2.87-0.52,4.12-0.75C102.46,84.43,102.2,83.45,101.89,82.23z"/>
		<path class="st2" d="M192.47,102.38c-2.24-0.5-4.19-3.01-4.34-5.6c-0.15-2.46,1.64-5.23,3.83-5.93c2.07-0.65,4.02,0.19,4.93,2.13
			c0.96,2.05,0.43,4-1.4,5.17c-1.1,0.7-2.64,0.49-3.31-0.55c-0.64-0.98-0.84-2.06,0.21-2.92c0.31-0.25,0.83-0.25,1.25-0.36
			c-0.12,0.37-0.27,0.73-0.34,1.11c-0.09,0.51-0.33,1.22-0.1,1.5c0.25,0.31,1.05,0.43,1.49,0.27c1.19-0.42,1.81-1.97,1.44-3.2
			c-0.43-1.42-1.65-2.31-2.98-2.16c-2.21,0.25-3.79,2.12-3.81,4.52c-0.02,2.48,1.66,4.73,3.75,5.01c2.93,0.4,6.54-2.37,7.22-5.32
			c1.17-5-3.35-11.29-9.85-8.58c-2.23,0.93-4.74-0.02-5.93-1.99c-1.2-1.99-0.9-4.59,0.96-6.15c0.92-0.77,2.17-1.14,3.34-1.72
			c-6.31-5.29-13.68-8.37-21.82-10.17c0.81-1.26,1.66-1.35,2.66-0.9c0.31,0.14,0.6,0.36,0.92,0.45c5.34,1.38,10.33,3.58,14.93,6.6
			c8.2,5.39,14.35,12.6,18.24,21.58c4.18,9.67,5.17,19.77,2.91,30.1c-1.01,4.63-2.42,9.15-4.98,13.21
			c-0.17,0.26-0.57,0.38-0.86,0.57c-0.09-0.35-0.28-0.7-0.23-1.04c0.05-0.37,0.32-0.71,0.46-1.08c1.37-3.63,2.75-7.26,4.08-10.91
			c0.23-0.63,0.3-1.32,0.44-1.99c-2.21,2.05-4.97,2.68-6.85,1.48c-2.66-1.7-3-3.8-1.26-7.97c-6.32-2.34-8.04-9.15-3.53-14.89
			C193.32,102.54,192.89,102.47,192.47,102.38z M205.67,106.61c-0.43,2.44-1.34,4.5-3.71,5.64c-2.09,1.01-4.57,0.3-5.63-1.67
			c-1.1-2.02-0.56-4.31,1.32-5.42c1.07-0.63,2.22-0.85,3.31-0.01c0.9,0.7,1.05,1.68,0.66,2.66c-0.19,0.49-0.68,0.94-1.15,1.22
			c-0.25,0.15-0.74-0.12-1.12-0.2c0.22-0.27,0.47-0.53,0.64-0.83c0.25-0.45,0.63-0.95,0.57-1.38c-0.03-0.28-0.76-0.65-1.18-0.65
			c-1.51,0.02-2.48,1.14-2.47,2.67c0.02,1.5,1.21,2.79,2.64,2.86c2.44,0.11,4.61-2,4.78-4.64c0.17-2.67-1.76-4.88-4.34-4.99
			c-4.8-0.2-8.41,4.21-7.23,8.83c1.08,4.23,3.34,5.89,7.65,5.62c2.58-0.16,4.36,0.95,5.6,3.37
			C206.75,115.32,206.35,110.97,205.67,106.61z M189.54,86.55c2.44-0.99,3.38-2.29,2.7-4.78c-0.57-2.04-2.61-3.02-4.69-2.4
			c-2,0.59-3.07,2.65-2.42,4.69C185.74,85.98,187.84,87.24,189.54,86.55z M202.19,124.8c2.13-0.73,3.2-2.78,2.49-4.78
			c-0.74-2.08-2.81-3.06-4.89-2.3c-1.89,0.69-2.87,2.79-2.19,4.68C198.33,124.41,200.31,125.44,202.19,124.8z M205.24,104.09
			c-1.06-3.17-2.12-6.34-3.16-9.46c-0.94,2.01-1.87,3.99-2.84,6.07C201.76,100.63,203.87,101.6,205.24,104.09z M192.98,85.5
			c1.25,0.23,2.5,0.46,4.12,0.75c-1.18-1.45-2.17-2.67-3.28-4.03C193.51,83.45,193.26,84.43,192.98,85.5z"/>
		<g>
			<path class="st3" d="M202.66,155.9l-3.58-6.63c0,0-23.91-1.68-51.13,13.08C147.95,162.35,183.79,149.8,202.66,155.9z"/>
			<path class="st3" d="M93.5,155.9l3.58-6.63c0,0,23.65-1.68,50.88,13.08C147.95,162.35,112.37,149.8,93.5,155.9z"/>
			<g>
				<path class="st3" d="M143.63,124.3c-0.01,0.01-0.02,0.03-0.05,0.1c0.09-0.05,0.14-0.07,0.19-0.1c0.41-0.27,0.82-0.53,1.23-0.81
					c0.75-0.51,1.5-1.02,2.24-1.56c0.7-0.51,1.39-1.04,2.07-1.57c0.53-0.41,1.07-0.82,1.59-1.25c0.82-0.68,1.63-1.38,2.43-2.08
					c0.87-0.76,1.74-1.53,2.6-2.3c1.25-1.13,2.46-2.29,3.59-3.54c0.58-0.63,1.15-1.27,1.71-1.93c0.26-0.31,0.51-0.64,0.76-0.96
					c-0.65,0.23-1.29,0.46-1.9,0.71c-0.15,0.18-0.3,0.35-0.46,0.53c-0.41,0.46-0.83,0.92-1.26,1.37c-0.58,0.6-1.16,1.19-1.76,1.77
					c-0.53,0.52-1.07,1.03-1.61,1.54c-0.35,0.34-0.72,0.67-1.08,1c-0.41,0.38-0.81,0.77-1.22,1.15c-0.44,0.41-0.89,0.82-1.34,1.22
					c-0.8,0.73-1.61,1.46-2.42,2.18c-0.59,0.52-1.18,1.04-1.78,1.55c-0.53,0.46-1.06,0.91-1.6,1.36
					C144.92,123.23,144.27,123.76,143.63,124.3z"/>
				<path class="st3" d="M147.95,162.35L147.95,162.35c-0.01-0.01,0-0.01,0-0.01C147.96,162.34,147.96,162.34,147.95,162.35z"/>
				<path class="st3" d="M178.37,106.22c-3.04-0.19-5.83-0.08-8.4,0.23c-0.09,0.3-0.18,0.6-0.27,0.9c-0.05,0.2-0.16,0.33-0.34,0.44
					c-1.12,0.65-2.23,1.31-3.35,1.96c-0.37,0.22-0.74,0.43-1.11,0.64c-0.05,0.03-0.1,0.07-0.19,0.13c0.27,0.05,0.5,0.01,0.72,0.01
					c0.24,0,0.47,0,0.71-0.01c0.24-0.01,0.47-0.02,0.71-0.03c0.23-0.01,0.46-0.01,0.69-0.02c0.23-0.01,0.47-0.02,0.7-0.03
					c0.24,0,0.47,0,0.7,0c0.05,0.11-0.03,0.16-0.08,0.22c-0.52,0.61-1.04,1.21-1.55,1.82c-0.55,0.65-1.1,1.3-1.65,1.94
					c-0.39,0.45-0.77,0.9-1.16,1.36c-0.4,0.47-0.81,0.94-1.2,1.42c-0.08,0.1-0.18,0.14-0.29,0.16c-0.34,0.04-0.68,0.08-1.02,0.12
					c-0.57,0.06-1.15,0.13-1.72,0.2c-0.4,0.04-0.8,0.08-1.2,0.12c-0.77,0.07-1.54,0.14-2.3,0.21c-0.05,0.01-0.1,0.01-0.16,0.04
					c0.38,0.14,0.77,0.18,1.16,0.26c0.39,0.08,0.79,0.14,1.18,0.22c0.4,0.07,0.79,0.15,1.19,0.23c0.4,0.07,0.79,0.14,1.19,0.21
					c0.39,0.07,0.78,0.14,1.22,0.24c-0.08,0.07-0.11,0.11-0.15,0.13c-0.7,0.35-1.4,0.71-2.11,1.05c-0.78,0.38-1.56,0.74-2.35,1.1
					c-0.53,0.24-1.07,0.48-1.61,0.7c-0.85,0.35-1.7,0.69-2.56,1.01c-0.9,0.34-1.81,0.65-2.74,0.89c-0.62,0.16-1.24,0.31-1.87,0.39
					c-0.39,0.05-0.78,0.08-1.17,0.15c-0.5,0.09-0.99,0.21-1.48,0.33c-1.03,0.26-2,0.69-2.96,1.14c-0.14,0.06-0.27,0.15-0.42,0.24
					c0.16,0.3,0.32,0.59,0.48,0.89c-1.46,1.07-2.9,2.11-4.36,3.18c-0.1-0.09-0.18-0.17-0.29-0.27c-0.06,0.05-0.11,0.09-0.15,0.14
					c-0.46,0.51-0.93,1-1.35,1.53c-0.35,0.44-0.66,0.91-0.95,1.38c-0.17,0.27-0.25,0.58-0.28,0.9c-0.05,0.45-0.11,0.9-0.16,1.35
					c-0.01,0.11-0.06,0.17-0.17,0.2c-0.21,0.07-0.42,0.14-0.62,0.22c-0.61,0.24-1.2,0.53-1.76,0.87c-0.68,0.42-1.3,0.92-1.89,1.46
					c-0.15,0.14-0.29,0.27-0.44,0.41c-0.08,0.07-0.13,0.15-0.13,0.27c0,0.09-0.05,0.18-0.11,0.26c-0.03,0.04-0.12,0.06-0.18,0.06
					c-0.08,0-0.11-0.07-0.11-0.15c-0.01-0.16,0.02-0.3,0.19-0.36c0.11-0.04,0.16-0.13,0.22-0.22c0.42-0.74,0.86-1.48,1.27-2.23
					c0.35-0.65,0.65-1.32,0.96-1.98c0.07-0.15,0.1-0.31,0.13-0.48c0.01-0.05-0.02-0.13-0.06-0.15c-0.04-0.02-0.12,0.01-0.16,0.05
					c-0.1,0.09-0.2,0.2-0.28,0.31c-0.38,0.52-0.69,1.08-0.97,1.65c-0.48,0.97-0.96,1.94-1.45,2.91c-0.04,0.09-0.08,0.16-0.04,0.27
					c0.05,0.14-0.01,0.26-0.12,0.35c-0.04,0.03-0.12,0.06-0.16,0.04c-0.04-0.02-0.09-0.08-0.1-0.13c-0.03-0.13,0.01-0.25,0.1-0.34
					c0.08-0.07,0.1-0.15,0.11-0.25c0.02-0.23,0.07-0.47,0.09-0.7c0.07-0.55,0.14-1.11,0.2-1.67c0.06-0.65,0.12-1.31,0.16-1.96
					c0.04-0.69,0.06-1.38,0.07-2.07c0.01-0.21,0.06-0.33,0.27-0.42c0.42-0.18,0.83-0.38,1.22-0.6c0.3-0.17,0.59-0.38,0.85-0.61
					c0.46-0.41,0.89-0.84,1.33-1.26c0.53-0.5,1.06-0.99,1.59-1.49c0.12-0.11,0.23-0.24,0.36-0.37c-0.1-0.13-0.18-0.24-0.27-0.37
					c1.59-1.43,3.26-2.69,5.03-3.87c0.28,0.3,0.38,0.7,0.64,1.03c0.18-0.2,0.36-0.38,0.52-0.57c0.63-0.74,1.26-1.48,1.81-2.29
					c0.47-0.69,0.89-1.42,1.21-2.2c0.29-0.7,0.59-1.39,0.99-2.03c0.15-0.25,0.32-0.49,0.48-0.73c-3.11-3.17-12.64-11.1-29.39-10.04
					l-23.78,41.27c0,0,30.34-1.5,54.28,14.8v0c23.94-16.3,54.19-14.8,54.19-14.8L178.37,106.22z"/>
				<path class="st3" d="M147.95,162.34c0-0.01-0.01-0.01,0-0.01C147.96,162.33,147.96,162.33,147.95,162.34z"/>
			</g>
			<path class="st4" d="M170.03,106.28c0.24-0.77,0.48-1.54,0.72-2.3c0.12-0.39,0.22-0.77,0.34-1.16c0.25-0.81,0.5-1.62,0.75-2.43
				c0.02-0.05,0.01-0.11,0.03-0.21c-0.96,0.35-1.89,0.69-2.88,1.05c0.06-0.11,0.08-0.18,0.11-0.23c0.16-0.22,0.32-0.44,0.5-0.64
				c0.5-0.54,1.01-1.07,1.52-1.6c0.2-0.21,0.41-0.4,0.63-0.6c0.1-0.09,0.15-0.18,0.12-0.32c-0.03-0.16-0.04-0.33-0.06-0.49
				c-0.09-0.81-0.19-1.62-0.28-2.42c-0.08-0.73-0.16-1.46-0.25-2.19c-0.09-0.77-0.18-1.54-0.28-2.32c-0.08-0.65-0.16-1.3-0.25-1.95
				c-0.06-0.48-0.13-0.95-0.2-1.43c-0.01-0.07-0.04-0.14-0.06-0.21c-0.05,0.02-0.07,0.02-0.08,0.04c-0.29,0.47-0.57,0.94-0.87,1.4
				c-0.51,0.77-1.1,1.47-1.72,2.15c-0.5,0.54-1.01,1.07-1.54,1.58c-0.62,0.59-1.26,1.16-1.9,1.73c-0.08,0.07-0.14,0.14-0.15,0.26
				c-0.04,0.48-0.1,0.96-0.14,1.44c-0.06,0.61-0.12,1.22-0.19,1.83c-0.08,0.77-0.16,1.55-0.25,2.32c-0.05,0.4-0.1,0.81-0.16,1.21
				c-0.02,0-0.04,0-0.06,0.01c-0.03-0.08-0.06-0.15-0.07-0.23c-0.06-0.24-0.11-0.5-0.17-0.74c-0.16-0.61-0.32-1.22-0.48-1.82
				c-0.07-0.26-0.14-0.52-0.21-0.78c-0.15-0.57-0.31-1.13-0.46-1.7c-0.01-0.04-0.05-0.08-0.08-0.14c-0.04,0.04-0.07,0.06-0.08,0.09
				c-0.28,0.41-0.55,0.83-0.85,1.23c-0.54,0.75-1.06,1.5-1.62,2.23c-0.73,0.94-1.48,1.87-2.24,2.79c-0.58,0.7-1.19,1.38-1.79,2.06
				c-0.11,0.12-0.16,0.26-0.18,0.43c-0.06,0.54-0.13,1.08-0.2,1.61c-0.03,0.23-0.07,0.47-0.1,0.7c-0.08,0.59-0.14,1.18-0.23,1.77
				c-0.08,0.51-0.18,1.01-0.27,1.52c-0.02,0.12-0.06,0.25-0.1,0.43c-0.03-0.08-0.04-0.1-0.04-0.12c-0.09-0.6-0.17-1.21-0.36-1.8
				c-0.23-0.71-0.46-1.41-0.69-2.12c-0.03-0.09-0.05-0.19-0.16-0.23c-0.21,0.4-0.4,0.79-0.61,1.17c-0.25,0.47-0.49,0.95-0.75,1.41
				c-0.35,0.64-0.71,1.27-1.07,1.9c-0.41,0.69-0.83,1.38-1.25,2.06c-0.37,0.58-0.75,1.14-1.13,1.71c-0.29,0.43-0.59,0.87-0.89,1.3"
				/>
			<path class="st4" d="M161.18,107.75c0.24-0.28,0.46-0.57,0.69-0.86c0.44-0.58,0.89-1.17,1.32-1.77c0.41-0.57,0.8-1.15,1.18-1.74
				c0.54-0.85,1.09-1.69,1.6-2.56c0.45-0.78,0.86-1.58,1.28-2.38c0.35-0.67,0.69-1.36,1.03-2.03c0.03-0.05,0.05-0.09,0.08-0.13
				c0.01,0.01,0.02,0.01,0.03,0.02c0,0.03,0,0.05-0.01,0.08c-0.19,0.55-0.38,1.11-0.59,1.65c-0.27,0.69-0.56,1.38-0.85,2.06
				c-0.34,0.78-0.69,1.55-1.11,2.29c-0.25,0.45-0.47,0.92-0.75,1.36c-0.57,0.92-1.14,1.84-1.75,2.74"/>
			<g>
				<path class="st0" d="M126.99,139.89c0.71-0.21,1.7,0.45,2.47,0.47c0.16,0,1.04-0.12,1.12-0.12c0.69-0.04,0.74,0.51,1.13,0.79
					c0.76,0.54,1.78,0.75,2.48,0.04c0.24-0.24-0.13-0.62-0.37-0.37c-0.94,0.95-1.84-0.21-2.38-0.79c-0.2-0.21-0.61-0.19-0.86-0.2
					c-0.9-0.03-1.56,0.2-2.45-0.29c-0.42-0.23-0.85-0.16-1.29-0.03C126.53,139.48,126.66,139.99,126.99,139.89L126.99,139.89z"/>
			</g>
		</g>
		<g>
			<g>
				<path class="st5" d="M147.7,60.36c-9.49,0.01-17.3,7.84-17.29,17.33c0.01,9.56,7.82,17.37,17.36,17.35
					c9.55-0.02,17.33-7.82,17.33-17.38C165.1,68.14,157.26,60.34,147.7,60.36z M147.72,92.43c-8.18-0.08-14.74-6.66-14.7-14.74
					c0.03-8.15,6.69-14.77,14.77-14.71c8.18,0.06,14.75,6.68,14.7,14.78C162.43,85.89,155.77,92.51,147.72,92.43z M134.17,89.81
					c-0.76,0-1.36,0.61-1.35,1.37c0.01,0.73,0.62,1.33,1.35,1.34c0.74,0.01,1.38-0.62,1.38-1.36
					C135.55,90.41,134.93,89.81,134.17,89.81z M147.75,59.94c0.74,0,1.34-0.58,1.36-1.32c0.02-0.78-0.6-1.42-1.36-1.41
					c-0.74,0.01-1.33,0.61-1.34,1.35C146.4,59.33,146.99,59.93,147.75,59.94z M134.17,65.6c0.77,0,1.38-0.59,1.38-1.34
					c0.01-0.74-0.62-1.35-1.37-1.35c-0.76,0-1.36,0.61-1.36,1.37C132.83,65.01,133.43,65.6,134.17,65.6z M128.65,76.35
					c-0.76-0.01-1.38,0.59-1.38,1.34c-0.01,0.75,0.6,1.35,1.37,1.35c0.74,0,1.34-0.58,1.36-1.32
					C130,76.97,129.41,76.36,128.65,76.35z M147.78,95.47c-0.76-0.01-1.36,0.58-1.37,1.35c-0.01,0.76,0.6,1.38,1.35,1.38
					c0.73,0,1.34-0.6,1.35-1.34C149.12,96.09,148.53,95.47,147.78,95.47z M166.88,76.35c-0.77,0-1.36,0.59-1.36,1.36
					c0.01,0.76,0.61,1.34,1.38,1.34c0.74-0.01,1.34-0.61,1.34-1.34C168.25,76.96,167.64,76.36,166.88,76.35z M161.4,89.81
					c-0.77-0.01-1.37,0.57-1.38,1.33c0,0.77,0.58,1.37,1.34,1.38c0.74,0.01,1.34-0.57,1.36-1.32
					C162.74,90.43,162.17,89.82,161.4,89.81z M161.36,65.6c0.78,0.01,1.37-0.58,1.37-1.35c-0.01-0.76-0.58-1.34-1.34-1.34
					c-0.78,0-1.37,0.58-1.37,1.36C160.02,65.01,160.6,65.59,161.36,65.6z M147.75,84.55c3.72,0.03,6.84-3.07,6.86-6.82
					c0.02-3.76-3.06-6.87-6.83-6.89c-3.77-0.02-6.84,3.03-6.88,6.84C140.85,81.42,143.96,84.53,147.75,84.55z M147.77,72.49
					c2.9,0.03,5.17,2.38,5.13,5.33c-0.04,2.71-2.41,5-5.14,4.97c-2.93-0.04-5.19-2.34-5.15-5.25
					C142.64,74.78,145.01,72.46,147.77,72.49z M146.41,67.65c0.2-0.18,0.35-0.42,0.55-0.49c0.62-0.19,0.66-0.63,0.61-1.15
					c-0.03-0.31-0.01-0.64-0.01-0.95v-1.6h-1.06c0.04,1.37-0.02,2.69-0.68,3.91C146.03,67.47,146.21,67.56,146.41,67.65z
					 M136.96,77.36c0.24-0.35,0.46-0.7,0.7-1.08c-0.06-0.13-0.15-0.32-0.25-0.52c-1.23,0.67-2.54,0.72-3.92,0.68v1.06
					c1.1,0,2.17,0,3.25-0.01C136.82,77.5,136.92,77.43,136.96,77.36z M139.08,71.77c0.51-0.06,0.7-0.3,0.64-0.78
					c-0.02-0.18,0.1-0.37,0.12-0.55c0.02-0.13,0.01-0.31-0.06-0.39c-0.74-0.76-1.49-1.51-2.28-2.31c-0.26,0.3-0.49,0.55-0.71,0.81
					C137.8,69.49,138.69,70.47,139.08,71.77z M147.04,88.35c-0.09-0.02-0.18-0.09-0.23-0.17c-0.28-0.43-0.6-0.39-0.98-0.09
					c0.65,1.19,0.69,2.51,0.68,3.86h1.04c0-0.91-0.02-1.81,0.01-2.7C147.58,88.81,147.54,88.47,147.04,88.35z M158.03,75.97
					c-0.37,0.44,0.06,0.63,0.28,0.87c0.22,0.24,0.16,0.76,0.73,0.68c0.46-0.06,0.94-0.01,1.41-0.01h1.57v-1.06
					c-1.38,0.04-2.7-0.03-3.91-0.68C158.07,75.87,158.06,75.93,158.03,75.97z M139.73,69.39c0.32,0.34,0.6,0.59,1.07,0.29
					c0.06-0.04,0.16-0.04,0.24-0.02c0.5,0.1,0.72-0.15,0.76-0.64c-1.33-0.38-2.29-1.32-3.22-2.28c-0.27,0.24-0.52,0.46-0.79,0.71
					C138.47,68.11,139.12,68.73,139.73,69.39z M137.71,79.04c-0.17-0.16-0.43-0.29-0.48-0.47c-0.21-0.69-0.72-0.65-1.26-0.62
					c-0.26,0.01-0.52,0-0.79,0c-0.56,0-1.12,0-1.67,0v1.06c1.36-0.03,2.68-0.01,3.92,0.67C137.53,79.46,137.62,79.26,137.71,79.04z
					 M148.14,66.91c0.33,0.23,0.68,0.45,1.06,0.71c0.13-0.06,0.32-0.15,0.53-0.25c-0.69-1.23-0.7-2.57-0.67-3.93H148
					c0,1.1,0,2.17,0.01,3.25C148.01,66.77,148.07,66.86,148.14,66.91z M156.47,83.68c-0.46,0.09-0.72,0.26-0.61,0.76
					c0.04,0.18-0.11,0.39-0.14,0.59c-0.02,0.12-0.02,0.29,0.05,0.36c0.73,0.76,1.48,1.52,2.25,2.29c0.26-0.29,0.49-0.55,0.72-0.81
					C157.74,85.94,156.87,84.96,156.47,83.68z M159.19,77.94c-0.39-0.01-0.66,0.05-0.76,0.47c-0.03,0.11-0.11,0.23-0.21,0.3
					c-0.45,0.29-0.33,0.6-0.08,0.96c1.2-0.65,2.51-0.69,3.87-0.66v-1.06C161.06,77.95,160.13,77.97,159.19,77.94z M154.84,85.74
					c-0.1,0.06-0.25,0.09-0.36,0.07c-0.48-0.12-0.67,0.13-0.74,0.62c1.32,0.38,2.26,1.3,3.19,2.24c0.27-0.24,0.52-0.46,0.79-0.71
					c-0.69-0.68-1.37-1.33-2.01-2.01C155.44,85.67,155.21,85.51,154.84,85.74z M154.82,69.72c0.38,0.16,0.61,0.07,0.88-0.22
					c0.65-0.7,1.35-1.36,2.05-2.05c-0.3-0.26-0.56-0.48-0.81-0.7c-0.94,1-1.91,1.89-3.22,2.28c0.08,0.23,0.15,0.41,0.22,0.59
					C154.25,69.65,154.56,69.61,154.82,69.72z M139.87,85.1c-0.06-0.4-0.16-0.8-0.25-1.24c-0.13-0.05-0.32-0.12-0.54-0.2
					c-0.39,1.33-1.29,2.29-2.28,3.23c0.24,0.26,0.47,0.52,0.71,0.78c0.78-0.78,1.52-1.51,2.25-2.26
					C139.83,85.34,139.88,85.2,139.87,85.1z M141.05,85.8c-0.18,0.04-0.39-0.11-0.59-0.14c-0.11-0.02-0.26-0.02-0.32,0.04
					c-0.77,0.75-1.52,1.51-2.31,2.3c0.27,0.24,0.52,0.46,0.79,0.71c0.94-1.01,1.92-1.89,3.21-2.28
					C141.74,85.95,141.56,85.7,141.05,85.8z M149.22,87.85c-0.43,0.26-0.82,0.58-1.22,0.87v3.21h1.06
					c-0.04-1.36,0.01-2.67,0.67-3.87C149.53,87.98,149.31,87.8,149.22,87.85z M156.11,69.71c-0.31,0.3-0.61,0.56-0.3,1.03
					c0.05,0.07,0.07,0.2,0.05,0.28c-0.12,0.48,0.12,0.68,0.62,0.75c0.39-1.3,1.29-2.26,2.27-3.21c-0.24-0.26-0.46-0.52-0.7-0.79
					C157.37,68.44,156.75,69.08,156.11,69.71z M147.49,86.37c0.05-0.06,0.07-0.15,0.08-0.23c0.01-0.37,0-0.74,0-1.14
					c-0.23-0.03-0.43-0.07-0.63-0.06c-0.09,0-0.23,0.11-0.24,0.19c-0.18,0.92-0.52,1.76-1.17,2.58
					C146.37,87.41,146.97,86.96,147.49,86.37z M155.05,77.54c0.49-0.03,0.93,0.02,1.32-0.1c0.45-0.13,1.24-1.39,1.28-1.9
					c-0.78,0.64-1.69,0.95-2.69,1.15C154.99,76.97,155.02,77.22,155.05,77.54z M153.59,82.07c-0.18,0.22-0.35,0.42-0.56,0.66
					c0.39,0.32,0.7,0.77,1.1,0.87c0.73,0.18,1.48-0.04,2.16-0.41C155.28,83.08,154.42,82.63,153.59,82.07z M152.73,83.01
					c-0.22,0.19-0.4,0.35-0.52,0.45c0.4,0.96,0.76,1.84,1.16,2.78c0.1-0.47,0.17-0.93,0.3-1.37
					C153.95,83.93,153.28,83.52,152.73,83.01z M146.77,70.49c0.25-0.02,0.51-0.05,0.83-0.08c-0.04-0.48,0.07-0.99-0.13-1.3
					c-0.41-0.64-1.07-1.05-1.83-1.32c0.25,0.46,0.5,0.86,0.68,1.29C146.5,69.52,146.61,69.99,146.77,70.49z M148.21,84.96
					c-0.06,0.01-0.13,0.04-0.21,0.06c0,0.24-0.01,0.48,0,0.71c0.01,0.22-0.04,0.49,0.08,0.64c0.48,0.61,1.1,1.05,1.75,1.26
					c-0.29-0.7-0.63-1.42-0.89-2.18C148.74,84.89,148.79,84.88,148.21,84.96z M137.89,75.61c0.23,1.31,1.33,2.11,2.58,1.85
					c0.02-0.25,0.04-0.5,0.06-0.74c-0.52-0.17-0.97-0.28-1.4-0.46C138.7,76.08,138.3,75.83,137.89,75.61z M156.45,78.04
					c-0.06-0.05-0.15-0.08-0.22-0.08c-0.38-0.01-0.77,0-1.19,0c-0.03,0.28-0.05,0.54-0.07,0.8c0.99,0.21,1.91,0.51,2.77,1.22
					C157.47,79.14,157.02,78.55,156.45,78.04z M148.08,69.06c-0.06,0.06-0.08,0.18-0.08,0.27c-0.01,0.34,0,0.69,0,1.1
					c0.3,0.02,0.55,0.04,0.7,0.06c0.4-0.93,0.76-1.8,1.13-2.66C149.16,68.05,148.58,68.49,148.08,69.06z M141.99,73.25
					c0.11-0.12,0.27-0.32,0.47-0.55c-0.32-0.3-0.6-0.76-0.95-0.84c-0.76-0.18-1.54-0.01-2.18,0.32
					C140.18,72.51,141.05,72.86,141.99,73.25z M140.48,77.98c-0.48,0-1-0.16-1.3,0.03c-0.65,0.41-1.06,1.08-1.31,1.76
					c0.87-0.37,1.74-0.73,2.67-1.13C140.52,78.49,140.5,78.25,140.48,77.98z M142.01,82.17c-0.93,0.39-1.81,0.75-2.64,1.09
					c0.27,0.21,1.43,0.55,1.92,0.37c0.45-0.17,0.81-0.56,1.24-0.86C142.28,82.49,142.12,82.3,142.01,82.17z M141.91,83.99
					c-0.18,0.76-0.02,1.54,0.41,2.35c0.12-1.1,0.54-1.96,1.1-2.78c-0.21-0.17-0.4-0.34-0.63-0.54
					C142.47,83.34,142,83.62,141.91,83.99z M153.66,71.37c0.16-0.72-0.03-1.47-0.33-2.1c-0.36,0.88-0.73,1.77-1.11,2.68
					c0.13,0.11,0.32,0.27,0.57,0.48C153.12,72.07,153.58,71.76,153.66,71.37z M142.71,72.46c0.28-0.24,0.48-0.42,0.68-0.6
					c-0.55-0.83-0.95-1.66-1.06-2.66c-0.33,0.4-0.62,1.39-0.44,2.09C142,71.72,142.41,72.06,142.71,72.46z M154.18,71.84
					c-0.42,0.1-0.76,0.56-1.14,0.86c0.23,0.26,0.39,0.45,0.57,0.66c0.82-0.55,1.68-0.98,2.78-1.09
					C155.64,71.86,154.89,71.68,154.18,71.84z M141.48,70.09c-1.04-0.09-1.5,0.38-1.31,1.34c0.41-0.03,0.81-0.05,1.24-0.08
					C141.43,70.92,141.46,70.51,141.48,70.09z M137.94,78.67c0.27-0.32,0.55-0.63,0.81-0.95c-0.27-0.32-0.54-0.63-0.8-0.94
					C137.12,77.37,137.12,78.02,137.94,78.67z M148.72,87.55c-0.33-0.28-0.64-0.54-0.96-0.81c-0.32,0.27-0.62,0.54-0.93,0.81
					C147.45,88.37,148.07,88.37,148.72,87.55z M140.17,84c-0.15,1.04,0.43,1.59,1.32,1.29c-0.03-0.39-0.06-0.78-0.09-1.19
					c-0.23-0.01-0.43-0.01-0.64-0.03C140.56,84.05,140.36,84.02,140.17,84z M146.85,67.91c0.31,0.26,0.63,0.53,0.94,0.79
					c0.31-0.27,0.62-0.54,0.95-0.82C148.1,67.05,147.32,67.12,146.85,67.91z M157.6,76.78c-0.28,0.33-0.55,0.64-0.81,0.95
					c0.27,0.32,0.54,0.63,0.8,0.94C158.42,78.04,158.43,77.42,157.6,76.78z M154.07,70.14c0.03,0.4,0.07,0.81,0.11,1.22
					c0.4,0.02,0.79,0.05,1.19,0.07C155.56,70.43,154.99,69.87,154.07,70.14z M154.07,85.32c1.01,0.16,1.5-0.34,1.29-1.31
					c-0.39,0.03-0.78,0.07-1.19,0.1C154.13,84.54,154.1,84.93,154.07,85.32z M145.36,76.81c0.1,0.86,1,1.41,1.82,1.11
					c0.18-0.07,0.29-0.13,0.28-0.41c-0.01-0.37,0.07-0.78,0.24-1.1c0.57-1.02,1.78-1.17,2.83-0.37c1.07,0.83,1.64,1.92,1.59,3.3
					c0.34-0.82,0.45-1.67,0.28-2.54c-0.22-1.16-0.81-2.09-1.7-2.86c-0.69-0.6-1.49-0.67-2.36-0.66
					C146.37,73.31,145.18,75.25,145.36,76.81z M148.12,80.26c0.73-0.54,0.77-1.64,0.06-2.18c-0.09-0.07-0.32-0.08-0.41-0.01
					c-0.52,0.38-1.06,0.43-1.65,0.24c-0.93-0.31-1.4-1.27-1.16-2.41c0.28-1.34,1-2.34,2.3-2.89c-0.9-0.01-1.96,0.48-2.77,1.24
					c-1.52,1.43-1.86,3.6-0.8,5.2C144.62,80.88,146.74,81.26,148.12,80.26z M149.58,76.03c-0.78-0.23-1.61,0.29-1.74,1.1
					c-0.03,0.21,0.01,0.34,0.26,0.43c0.22,0.08,0.43,0.25,0.58,0.44c0.79,1,0.5,2.26-0.68,2.83c-1.29,0.63-2.58,0.58-3.84-0.17
					c1.12,1.32,2.56,1.89,4.26,1.67c1.49-0.19,2.6-0.94,3.1-2.43C152.01,78.41,151.05,76.46,149.58,76.03z"/>
			</g>
		</g>
		<g>
			<path class="st6" d="M123.03,176.33c0,0.09,0,0.16-0.01,0.23c-0.01,0.07-0.03,0.12-0.05,0.17c-0.03,0.05-0.05,0.08-0.08,0.1
				c-0.03,0.02-0.07,0.03-0.1,0.03h-4.53c-0.11,0-0.22-0.04-0.32-0.11c-0.1-0.07-0.15-0.21-0.15-0.4v-8.42
				c0-0.19,0.05-0.32,0.15-0.4c0.1-0.08,0.2-0.11,0.32-0.11h4.48c0.04,0,0.07,0.01,0.11,0.03c0.03,0.02,0.06,0.05,0.08,0.1
				c0.02,0.04,0.04,0.1,0.05,0.17c0.01,0.06,0.02,0.15,0.02,0.24c0,0.09-0.01,0.17-0.02,0.23c-0.01,0.07-0.03,0.12-0.05,0.16
				c-0.02,0.04-0.05,0.07-0.08,0.09c-0.03,0.02-0.07,0.03-0.11,0.03h-3.69v2.96h3.17c0.04,0,0.08,0.01,0.11,0.03
				c0.03,0.02,0.06,0.05,0.08,0.09c0.02,0.04,0.04,0.09,0.05,0.16c0.01,0.07,0.01,0.15,0.01,0.24c0,0.09-0.01,0.16-0.01,0.23
				c-0.01,0.06-0.03,0.11-0.05,0.15c-0.02,0.04-0.05,0.07-0.08,0.09s-0.07,0.03-0.11,0.03h-3.17v3.38h3.75
				c0.04,0,0.07,0.01,0.1,0.03c0.03,0.02,0.06,0.05,0.08,0.09c0.03,0.04,0.04,0.09,0.05,0.16
				C123.02,176.15,123.03,176.23,123.03,176.33z"/>
			<path class="st6" d="M129.06,174.88c0,0.34-0.06,0.63-0.19,0.9c-0.12,0.26-0.3,0.48-0.53,0.66c-0.23,0.18-0.5,0.32-0.82,0.41
				c-0.32,0.09-0.66,0.14-1.04,0.14c-0.23,0-0.45-0.02-0.67-0.06c-0.21-0.04-0.4-0.08-0.57-0.14c-0.17-0.06-0.31-0.12-0.43-0.18
				c-0.12-0.06-0.2-0.12-0.26-0.16c-0.05-0.05-0.09-0.12-0.12-0.21c-0.03-0.09-0.04-0.21-0.04-0.36c0-0.09,0-0.17,0.01-0.23
				c0.01-0.06,0.02-0.11,0.03-0.15c0.02-0.04,0.04-0.07,0.07-0.09c0.03-0.02,0.06-0.03,0.09-0.03c0.05,0,0.13,0.03,0.24,0.1
				c0.1,0.07,0.23,0.14,0.39,0.22c0.16,0.08,0.34,0.15,0.55,0.22c0.21,0.07,0.45,0.1,0.72,0.1c0.21,0,0.39-0.02,0.55-0.07
				c0.17-0.04,0.31-0.11,0.43-0.19c0.12-0.09,0.22-0.19,0.28-0.32c0.07-0.13,0.1-0.29,0.1-0.47c0-0.18-0.05-0.34-0.14-0.47
				c-0.09-0.13-0.22-0.24-0.38-0.33c-0.15-0.1-0.33-0.19-0.52-0.26c-0.2-0.07-0.4-0.15-0.6-0.24c-0.21-0.08-0.41-0.18-0.61-0.28
				c-0.2-0.11-0.37-0.23-0.53-0.38c-0.16-0.15-0.28-0.33-0.38-0.54c-0.09-0.21-0.14-0.46-0.14-0.75c0-0.26,0.05-0.51,0.15-0.74
				c0.1-0.23,0.25-0.44,0.45-0.62c0.2-0.18,0.45-0.32,0.75-0.43c0.3-0.11,0.65-0.16,1.05-0.16c0.18,0,0.35,0.02,0.53,0.04
				c0.17,0.03,0.33,0.07,0.47,0.11c0.14,0.04,0.26,0.09,0.36,0.14c0.1,0.05,0.18,0.09,0.23,0.13c0.05,0.04,0.08,0.07,0.1,0.1
				c0.02,0.03,0.03,0.06,0.04,0.1c0.01,0.04,0.01,0.08,0.02,0.14c0.01,0.05,0.01,0.12,0.01,0.2c0,0.08-0.01,0.15-0.01,0.21
				c-0.01,0.06-0.02,0.11-0.03,0.15c-0.02,0.04-0.04,0.07-0.06,0.08c-0.02,0.02-0.05,0.03-0.08,0.03c-0.05,0-0.11-0.03-0.19-0.08
				c-0.08-0.05-0.19-0.11-0.32-0.17c-0.13-0.06-0.29-0.12-0.46-0.17c-0.18-0.05-0.38-0.08-0.61-0.08c-0.21,0-0.38,0.02-0.54,0.07
				c-0.16,0.05-0.28,0.11-0.38,0.2c-0.1,0.08-0.18,0.19-0.23,0.3c-0.05,0.12-0.08,0.25-0.08,0.38c0,0.19,0.05,0.35,0.15,0.48
				c0.1,0.13,0.22,0.24,0.38,0.34c0.16,0.1,0.33,0.18,0.53,0.26c0.2,0.08,0.4,0.16,0.61,0.24c0.21,0.08,0.41,0.18,0.61,0.28
				c0.2,0.1,0.38,0.23,0.54,0.37c0.16,0.14,0.28,0.32,0.38,0.53C129.01,174.35,129.06,174.59,129.06,174.88z"/>
			<path class="st6" d="M134.03,176.18c0,0.14-0.01,0.25-0.03,0.33c-0.02,0.08-0.05,0.14-0.09,0.18c-0.04,0.04-0.1,0.08-0.18,0.11
				c-0.08,0.03-0.17,0.06-0.27,0.08c-0.1,0.02-0.2,0.04-0.31,0.05c-0.11,0.02-0.23,0.02-0.34,0.02c-0.34,0-0.63-0.05-0.88-0.14
				c-0.24-0.09-0.44-0.23-0.6-0.41c-0.15-0.18-0.27-0.41-0.34-0.7c-0.07-0.28-0.11-0.61-0.11-0.99v-3.84h-0.92
				c-0.07,0-0.13-0.04-0.18-0.12c-0.04-0.08-0.07-0.2-0.07-0.38c0-0.09,0.01-0.17,0.02-0.24c0.01-0.06,0.03-0.11,0.05-0.15
				c0.02-0.04,0.05-0.07,0.08-0.09c0.03-0.01,0.07-0.02,0.11-0.02h0.91v-1.56c0-0.03,0.01-0.07,0.03-0.09
				c0.02-0.03,0.05-0.06,0.1-0.08c0.05-0.02,0.11-0.04,0.19-0.05c0.08-0.01,0.17-0.02,0.29-0.02c0.12,0,0.22,0.01,0.3,0.02
				c0.08,0.01,0.14,0.03,0.18,0.05c0.04,0.02,0.07,0.05,0.09,0.08c0.02,0.03,0.03,0.06,0.03,0.09v1.56h1.68
				c0.04,0,0.07,0.01,0.1,0.02c0.03,0.02,0.06,0.05,0.08,0.09c0.02,0.04,0.04,0.09,0.05,0.15c0.01,0.07,0.01,0.14,0.01,0.24
				c0,0.17-0.02,0.3-0.06,0.38c-0.04,0.08-0.1,0.12-0.18,0.12h-1.68v3.66c0,0.45,0.06,0.79,0.2,1.03c0.13,0.23,0.37,0.35,0.72,0.35
				c0.11,0,0.21-0.01,0.3-0.03c0.09-0.02,0.17-0.04,0.24-0.07c0.07-0.03,0.12-0.05,0.18-0.07c0.05-0.02,0.09-0.03,0.13-0.03
				c0.03,0,0.05,0.01,0.07,0.02c0.02,0.01,0.04,0.04,0.05,0.07c0.01,0.03,0.03,0.08,0.03,0.14
				C134.02,176.02,134.03,176.09,134.03,176.18z"/>
			<path class="st6" d="M141.08,176.66c0,0.04-0.01,0.07-0.03,0.1c-0.02,0.03-0.05,0.05-0.08,0.07c-0.04,0.02-0.1,0.03-0.17,0.04
				c-0.07,0.01-0.15,0.02-0.25,0.02c-0.1,0-0.19-0.01-0.26-0.02c-0.07-0.01-0.12-0.02-0.17-0.04c-0.04-0.02-0.08-0.04-0.1-0.07
				c-0.02-0.03-0.03-0.06-0.03-0.1v-0.87c-0.34,0.37-0.7,0.67-1.08,0.88c-0.37,0.21-0.78,0.31-1.22,0.31
				c-0.48,0-0.89-0.09-1.23-0.28c-0.35-0.19-0.62-0.44-0.83-0.76c-0.21-0.32-0.37-0.7-0.46-1.13c-0.1-0.43-0.14-0.88-0.14-1.36
				c0-0.56,0.06-1.07,0.18-1.53c0.12-0.46,0.3-0.84,0.54-1.16c0.24-0.32,0.54-0.57,0.89-0.74c0.35-0.17,0.76-0.26,1.22-0.26
				c0.39,0,0.74,0.09,1.06,0.25c0.32,0.17,0.63,0.41,0.95,0.74v-3.82c0-0.03,0.01-0.07,0.03-0.1c0.02-0.03,0.05-0.06,0.1-0.07
				c0.05-0.02,0.11-0.03,0.18-0.05c0.08-0.01,0.17-0.02,0.29-0.02c0.12,0,0.22,0.01,0.3,0.02c0.08,0.01,0.14,0.03,0.18,0.05
				c0.04,0.02,0.08,0.04,0.1,0.07c0.02,0.03,0.03,0.06,0.03,0.1V176.66z M139.87,172.04c-0.33-0.4-0.64-0.71-0.95-0.92
				c-0.31-0.21-0.62-0.32-0.95-0.32c-0.3,0-0.57,0.07-0.78,0.22c-0.22,0.15-0.39,0.34-0.52,0.58c-0.13,0.24-0.23,0.51-0.29,0.81
				c-0.06,0.3-0.09,0.61-0.09,0.92c0,0.33,0.03,0.65,0.07,0.97c0.05,0.32,0.14,0.6,0.27,0.84c0.13,0.24,0.3,0.44,0.5,0.59
				c0.21,0.15,0.47,0.22,0.79,0.22c0.16,0,0.32-0.02,0.46-0.07c0.15-0.04,0.3-0.12,0.45-0.22c0.16-0.1,0.32-0.24,0.49-0.4
				c0.17-0.16,0.35-0.36,0.54-0.6V172.04z"/>
			<path class="st6" d="M144.86,176.05c0,0.35-0.06,0.58-0.17,0.69c-0.11,0.11-0.32,0.17-0.62,0.17c-0.29,0-0.49-0.06-0.61-0.17
				c-0.11-0.11-0.17-0.34-0.17-0.67c0-0.34,0.06-0.57,0.17-0.69c0.11-0.12,0.32-0.17,0.62-0.17c0.29,0,0.49,0.06,0.61,0.17
				C144.8,175.49,144.86,175.71,144.86,176.05z"/>
			<path class="st6" d="M156.09,176.3c0,0.09-0.01,0.16-0.02,0.23c-0.01,0.07-0.03,0.12-0.05,0.17c-0.02,0.05-0.05,0.08-0.09,0.1
				c-0.03,0.02-0.08,0.03-0.12,0.03h-5.22c-0.07,0-0.13-0.01-0.18-0.03c-0.05-0.02-0.1-0.05-0.13-0.08
				c-0.04-0.04-0.06-0.09-0.08-0.17c-0.02-0.07-0.03-0.16-0.03-0.27c0-0.1,0-0.18,0.01-0.26c0.01-0.07,0.02-0.14,0.05-0.19
				c0.03-0.06,0.06-0.11,0.09-0.17c0.04-0.06,0.09-0.12,0.15-0.18l1.89-1.94c0.43-0.45,0.78-0.85,1.05-1.2
				c0.26-0.35,0.47-0.68,0.61-0.97c0.14-0.29,0.24-0.55,0.28-0.79c0.05-0.24,0.07-0.46,0.07-0.67c0-0.21-0.03-0.41-0.1-0.6
				c-0.07-0.18-0.17-0.35-0.3-0.49c-0.13-0.14-0.3-0.25-0.5-0.33c-0.2-0.08-0.43-0.12-0.69-0.12c-0.31,0-0.58,0.04-0.82,0.12
				c-0.25,0.08-0.46,0.17-0.64,0.27c-0.18,0.1-0.34,0.19-0.46,0.27c-0.12,0.08-0.21,0.12-0.27,0.12c-0.03,0-0.07-0.01-0.09-0.03
				c-0.03-0.02-0.05-0.05-0.07-0.09c-0.02-0.04-0.03-0.1-0.04-0.17c-0.01-0.07-0.02-0.16-0.02-0.26c0-0.07,0-0.13,0.01-0.19
				c0-0.05,0.01-0.1,0.03-0.14c0.01-0.04,0.03-0.08,0.05-0.11c0.02-0.03,0.06-0.08,0.12-0.13c0.06-0.05,0.16-0.12,0.3-0.21
				c0.14-0.09,0.32-0.17,0.54-0.26c0.22-0.09,0.46-0.16,0.72-0.22c0.26-0.06,0.53-0.09,0.82-0.09c0.46,0,0.86,0.07,1.2,0.19
				c0.34,0.13,0.63,0.31,0.85,0.53c0.23,0.22,0.39,0.48,0.51,0.78c0.11,0.3,0.17,0.61,0.17,0.95c0,0.3-0.03,0.6-0.08,0.9
				c-0.06,0.3-0.17,0.62-0.34,0.97c-0.17,0.35-0.42,0.73-0.75,1.16c-0.33,0.43-0.76,0.92-1.3,1.47l-1.49,1.56h4.11
				c0.04,0,0.07,0.01,0.11,0.03c0.03,0.02,0.07,0.06,0.09,0.1c0.03,0.04,0.05,0.1,0.06,0.16
				C156.08,176.14,156.09,176.22,156.09,176.3z"/>
			<path class="st6" d="M163.97,172.1c0,0.73-0.06,1.39-0.17,1.98c-0.12,0.6-0.3,1.11-0.57,1.54c-0.26,0.43-0.61,0.76-1.04,1
				c-0.43,0.24-0.96,0.36-1.58,0.36c-0.59,0-1.09-0.11-1.5-0.32c-0.4-0.21-0.73-0.52-0.98-0.94c-0.25-0.41-0.42-0.92-0.53-1.52
				c-0.1-0.6-0.16-1.29-0.16-2.07c0-0.72,0.06-1.38,0.18-1.98c0.12-0.6,0.31-1.12,0.57-1.55c0.26-0.43,0.61-0.76,1.04-1
				c0.43-0.24,0.95-0.36,1.58-0.36c0.6,0,1.1,0.11,1.51,0.32c0.41,0.21,0.73,0.52,0.98,0.94c0.25,0.41,0.42,0.91,0.53,1.52
				C163.92,170.63,163.97,171.32,163.97,172.1z M162.69,172.19c0-0.47-0.02-0.89-0.05-1.27c-0.03-0.37-0.08-0.71-0.15-0.99
				c-0.06-0.29-0.15-0.53-0.25-0.74c-0.1-0.21-0.23-0.38-0.38-0.51c-0.15-0.13-0.31-0.23-0.5-0.29c-0.19-0.06-0.4-0.09-0.63-0.09
				c-0.42,0-0.75,0.1-1.01,0.29c-0.26,0.19-0.46,0.46-0.61,0.8c-0.15,0.34-0.25,0.74-0.3,1.2c-0.06,0.46-0.08,0.95-0.08,1.48
				c0,0.7,0.04,1.31,0.11,1.8c0.07,0.49,0.19,0.9,0.35,1.21c0.16,0.31,0.36,0.54,0.61,0.68c0.25,0.14,0.54,0.21,0.89,0.21
				c0.27,0,0.51-0.04,0.72-0.13c0.21-0.09,0.38-0.21,0.53-0.38c0.14-0.16,0.27-0.36,0.37-0.59c0.09-0.23,0.17-0.48,0.23-0.76
				c0.06-0.28,0.1-0.58,0.12-0.9C162.68,172.87,162.69,172.54,162.69,172.19z"/>
			<path class="st6" d="M171.26,176.35c0,0.09-0.01,0.17-0.02,0.23c-0.02,0.06-0.03,0.12-0.06,0.15c-0.02,0.04-0.05,0.07-0.08,0.08
				c-0.03,0.02-0.06,0.03-0.1,0.03h-4.93c-0.03,0-0.07-0.01-0.09-0.03c-0.03-0.02-0.06-0.05-0.09-0.08
				c-0.03-0.04-0.05-0.09-0.06-0.15c-0.01-0.06-0.02-0.14-0.02-0.23c0-0.09,0.01-0.16,0.02-0.23c0.01-0.06,0.03-0.12,0.05-0.15
				c0.02-0.04,0.05-0.07,0.08-0.09c0.03-0.02,0.07-0.03,0.11-0.03h1.97v-7.18l-1.83,1.09c-0.09,0.05-0.17,0.08-0.22,0.09
				c-0.06,0.01-0.1,0-0.14-0.03c-0.03-0.03-0.06-0.09-0.07-0.16c-0.01-0.07-0.02-0.16-0.02-0.27c0-0.08,0-0.15,0.01-0.22
				c0.01-0.06,0.02-0.1,0.03-0.15c0.01-0.04,0.03-0.07,0.06-0.1c0.03-0.03,0.06-0.06,0.1-0.09l2.18-1.39
				c0.02-0.02,0.04-0.03,0.07-0.04c0.03-0.01,0.06-0.02,0.11-0.03c0.05-0.01,0.1-0.01,0.15-0.02c0.06,0,0.13,0,0.22,0
				c0.12,0,0.22,0,0.29,0.02c0.08,0.01,0.14,0.02,0.18,0.04c0.05,0.02,0.07,0.04,0.09,0.06c0.01,0.03,0.02,0.06,0.02,0.09v8.3H171
				c0.04,0,0.07,0.01,0.11,0.03c0.03,0.02,0.06,0.05,0.08,0.09c0.02,0.04,0.04,0.09,0.05,0.15
				C171.25,176.18,171.26,176.26,171.26,176.35z"/>
			<path class="st6" d="M178.89,171.75c0,0.41-0.03,0.83-0.07,1.24c-0.05,0.42-0.13,0.82-0.25,1.21c-0.12,0.39-0.27,0.75-0.47,1.09
				c-0.2,0.34-0.44,0.63-0.74,0.88c-0.3,0.25-0.65,0.45-1.06,0.6c-0.41,0.14-0.89,0.21-1.44,0.21c-0.21,0-0.41-0.01-0.61-0.04
				c-0.2-0.03-0.37-0.06-0.53-0.1c-0.16-0.04-0.29-0.08-0.4-0.12c-0.11-0.04-0.19-0.09-0.24-0.13c-0.05-0.04-0.08-0.1-0.11-0.18
				c-0.02-0.08-0.03-0.18-0.03-0.3c0-0.11,0-0.19,0.01-0.26c0.01-0.06,0.02-0.11,0.03-0.15c0.01-0.03,0.03-0.06,0.06-0.07
				c0.03-0.01,0.06-0.02,0.1-0.02c0.06,0,0.13,0.02,0.23,0.06c0.1,0.03,0.22,0.07,0.37,0.12c0.15,0.04,0.32,0.08,0.52,0.12
				c0.2,0.03,0.42,0.05,0.67,0.05c0.47,0,0.87-0.09,1.21-0.27c0.34-0.19,0.61-0.43,0.83-0.73c0.21-0.3,0.38-0.66,0.48-1.07
				c0.1-0.4,0.16-0.83,0.17-1.28c-0.26,0.15-0.57,0.29-0.93,0.4c-0.36,0.12-0.77,0.18-1.24,0.18c-0.53,0-0.97-0.07-1.33-0.22
				c-0.36-0.15-0.64-0.34-0.86-0.59c-0.22-0.25-0.37-0.54-0.47-0.88c-0.09-0.34-0.14-0.71-0.14-1.12c0-0.42,0.06-0.82,0.18-1.19
				c0.12-0.38,0.31-0.71,0.57-1c0.26-0.29,0.59-0.52,0.98-0.68c0.4-0.17,0.88-0.26,1.43-0.26c0.39,0,0.74,0.05,1.04,0.15
				c0.31,0.1,0.57,0.25,0.79,0.43c0.22,0.19,0.41,0.42,0.57,0.68c0.16,0.27,0.28,0.57,0.38,0.9c0.09,0.34,0.16,0.7,0.2,1.09
				C178.87,170.9,178.89,171.32,178.89,171.75z M177.61,171.61c0-0.62-0.04-1.15-0.12-1.57c-0.08-0.42-0.2-0.77-0.37-1.03
				c-0.16-0.26-0.36-0.45-0.59-0.57c-0.23-0.12-0.5-0.18-0.81-0.18c-0.31,0-0.58,0.06-0.81,0.17c-0.22,0.11-0.41,0.27-0.55,0.46
				c-0.14,0.19-0.25,0.41-0.32,0.65c-0.07,0.24-0.1,0.49-0.1,0.75c0,0.29,0.03,0.55,0.09,0.79c0.06,0.24,0.16,0.44,0.29,0.61
				c0.14,0.16,0.32,0.29,0.53,0.38c0.22,0.09,0.49,0.13,0.81,0.13c0.37,0,0.72-0.05,1.06-0.17
				C177.07,171.94,177.36,171.79,177.61,171.61z"/>
		</g>
	</g>
</g>
</svg>
